<svg id="svg" version="1.1" xmlns="http://www.w3.org/2000/svg" xmlns:xlink="http://www.w3.org/1999/xlink" width="400" height="114.28571428571429" viewBox="0, 0, 400,114.28571428571429"><g id="svgg"><path id="path0" d="M81.708 10.277 C 81.350 10.422,81.480 10.963,81.958 11.314 C 82.210 11.498,82.771 12.010,83.205 12.450 C 84.175 13.434,90.260 19.520,90.504 19.750 C 92.371 21.506,96.671 26.106,96.632 26.306 C 96.602 26.463,96.314 26.623,95.916 26.703 C 95.550 26.777,94.791 27.062,94.230 27.336 C 93.668 27.609,93.127 27.833,93.028 27.833 C 92.751 27.833,91.194 29.151,89.991 30.401 C 89.400 31.016,88.664 31.758,88.355 32.051 C 88.046 32.344,87.333 33.068,86.771 33.661 C 85.656 34.837,81.720 38.895,79.549 41.107 C 78.796 41.873,78.120 42.500,78.046 42.500 C 77.973 42.500,77.727 42.800,77.500 43.167 C 77.273 43.533,77.037 43.833,76.974 43.833 C 76.912 43.833,76.611 44.106,76.305 44.439 C 76.000 44.771,75.530 45.240,75.262 45.480 C 74.650 46.027,74.444 46.240,73.441 47.353 C 72.997 47.846,72.484 48.400,72.302 48.583 C 72.121 48.767,71.397 49.497,70.694 50.206 C 63.213 57.755,60.679 60.565,60.670 61.323 C 60.668 61.454,60.528 61.717,60.359 61.906 C 60.189 62.095,59.808 63.000,59.511 63.917 C 58.186 68.008,58.498 72.361,60.388 76.140 C 61.391 78.145,64.059 81.175,65.324 81.746 C 65.696 81.913,66.000 82.113,66.000 82.189 C 66.000 82.757,70.530 84.233,73.917 84.770 C 74.833 84.915,76.408 85.240,77.417 85.491 C 79.758 86.076,80.733 86.290,81.667 86.423 C 82.592 86.554,85.156 87.122,86.167 87.419 C 86.579 87.540,87.442 87.728,88.083 87.837 C 88.725 87.945,89.587 88.107,90.000 88.196 C 90.412 88.285,91.087 88.415,91.500 88.484 C 91.912 88.554,92.700 88.730,93.250 88.876 C 95.005 89.341,96.393 89.645,97.250 89.752 C 97.708 89.809,98.346 89.924,98.667 90.007 C 100.951 90.597,103.118 91.079,104.583 91.323 C 105.042 91.399,105.904 91.575,106.500 91.712 C 108.921 92.272,112.147 92.970,113.167 93.155 C 114.337 93.367,115.697 93.671,117.667 94.161 C 118.354 94.331,119.292 94.525,119.750 94.590 C 120.490 94.695,122.321 95.087,124.000 95.500 C 124.537 95.632,125.951 95.920,129.417 96.605 C 130.150 96.750,130.900 96.928,131.083 97.000 C 131.267 97.072,132.017 97.249,132.750 97.393 C 135.332 97.900,138.268 98.530,139.919 98.932 C 140.837 99.156,142.262 99.448,143.086 99.581 C 143.909 99.714,145.221 99.973,146.000 100.157 C 147.339 100.473,148.511 100.724,152.417 101.531 C 153.333 101.720,154.155 101.941,154.242 102.021 C 154.329 102.101,154.685 102.167,155.033 102.167 C 155.738 102.167,155.883 101.850,155.375 101.420 C 155.215 101.284,154.896 100.981,154.667 100.746 C 154.438 100.512,153.997 100.079,153.689 99.785 C 153.380 99.491,153.005 99.110,152.855 98.939 C 152.706 98.767,151.646 97.707,150.500 96.581 C 149.354 95.456,148.276 94.386,148.105 94.204 C 147.652 93.723,146.831 92.882,146.656 92.722 C 146.573 92.646,145.473 91.554,144.211 90.296 C 142.949 89.038,141.742 87.838,141.529 87.629 C 141.316 87.421,140.907 87.010,140.619 86.717 L 140.096 86.184 141.006 85.760 C 141.507 85.527,142.042 85.336,142.195 85.335 C 143.505 85.327,145.444 83.703,151.174 77.813 C 153.874 75.037,156.320 72.537,156.608 72.258 C 157.340 71.550,157.479 71.407,158.373 70.439 C 159.018 69.739,159.960 68.782,162.207 66.540 C 163.267 65.483,165.638 62.954,165.956 62.542 C 166.185 62.244,166.473 62.000,166.595 62.000 C 166.718 62.000,166.953 61.806,167.117 61.570 C 167.282 61.333,168.523 60.021,169.875 58.655 C 171.227 57.288,172.333 56.095,172.333 56.004 C 172.333 55.912,172.637 55.646,173.008 55.412 C 173.379 55.177,173.727 54.858,173.781 54.701 C 173.836 54.545,174.234 54.042,174.668 53.583 C 175.101 53.125,175.597 52.487,175.769 52.167 C 175.942 51.846,176.290 51.310,176.543 50.975 C 176.795 50.640,177.049 50.115,177.108 49.808 C 177.166 49.501,177.269 49.175,177.336 49.083 C 177.404 48.992,177.668 48.204,177.924 47.333 C 179.510 41.927,177.203 34.757,172.821 31.472 C 171.190 30.250,170.037 29.516,169.572 29.405 C 169.303 29.340,169.008 29.233,168.917 29.167 C 168.476 28.850,165.999 28.144,164.273 27.844 C 161.980 27.446,162.199 27.493,159.148 26.751 C 157.809 26.425,156.213 26.112,155.601 26.055 C 154.990 25.998,154.450 25.887,154.401 25.809 C 154.353 25.731,154.103 25.667,153.844 25.667 C 153.586 25.667,153.048 25.551,152.647 25.410 C 151.911 25.150,150.750 24.894,148.167 24.423 C 146.013 24.030,144.512 23.703,143.500 23.405 C 142.996 23.256,142.133 23.064,141.583 22.977 C 140.202 22.760,137.436 22.184,136.333 21.885 C 134.742 21.453,134.272 21.350,133.417 21.247 C 132.522 21.140,131.027 20.817,129.417 20.383 C 128.227 20.062,127.291 19.873,125.854 19.663 C 125.270 19.578,124.182 19.359,123.438 19.177 C 121.851 18.790,119.400 18.243,115.917 17.498 C 114.542 17.204,112.967 16.857,112.417 16.727 C 111.867 16.597,110.967 16.427,110.417 16.349 C 109.867 16.271,109.117 16.127,108.750 16.028 C 108.383 15.930,107.371 15.694,106.500 15.505 C 105.629 15.316,104.579 15.077,104.167 14.974 C 103.754 14.871,103.079 14.731,102.667 14.662 C 102.254 14.593,101.054 14.343,100.000 14.105 C 98.946 13.868,97.258 13.511,96.250 13.314 C 95.242 13.116,93.517 12.746,92.417 12.492 C 91.317 12.237,89.667 11.875,88.750 11.688 C 86.157 11.157,84.175 10.720,83.083 10.437 C 81.989 10.154,82.008 10.156,81.708 10.277 M101.725 30.982 C 102.628 31.863,103.453 32.685,103.559 32.810 C 103.664 32.935,104.381 33.648,105.152 34.394 C 105.924 35.140,106.749 35.971,106.986 36.242 C 107.360 36.669,107.959 37.269,108.379 37.637 C 108.450 37.699,108.679 37.938,108.888 38.167 C 109.097 38.396,109.489 38.777,109.759 39.014 C 110.029 39.250,110.897 40.113,111.688 40.930 C 112.479 41.748,113.604 42.875,114.188 43.435 C 114.772 43.995,115.672 44.895,116.188 45.435 C 116.703 45.975,117.416 46.687,117.771 47.017 C 118.126 47.347,118.696 47.910,119.037 48.267 C 119.378 48.624,119.753 49.008,119.871 49.121 C 120.570 49.791,122.904 52.119,123.062 52.303 C 123.165 52.424,123.918 53.174,124.734 53.970 C 125.550 54.766,126.413 55.636,126.651 55.903 C 126.889 56.170,127.223 56.508,127.394 56.653 C 127.565 56.798,128.690 57.921,129.894 59.150 C 131.098 60.378,132.213 61.503,132.371 61.650 C 132.529 61.796,133.129 62.392,133.704 62.973 C 134.279 63.554,135.382 64.642,136.154 65.390 C 138.230 67.400,139.385 68.640,139.667 69.159 C 141.121 71.843,141.175 71.987,141.371 73.737 C 141.665 76.370,141.426 78.006,140.455 80.003 C 139.692 81.575,138.262 83.333,137.747 83.333 C 137.266 83.333,136.657 82.928,136.346 82.401 C 136.169 82.100,135.794 81.736,135.515 81.591 C 135.235 81.446,134.887 81.099,134.742 80.819 C 134.598 80.539,134.237 80.167,133.942 79.993 C 133.646 79.818,133.182 79.375,132.910 79.007 C 132.639 78.640,132.289 78.296,132.133 78.244 C 131.977 78.192,131.640 77.867,131.383 77.522 C 131.127 77.177,130.323 76.356,129.598 75.697 C 128.873 75.038,128.146 74.281,127.984 74.014 C 127.822 73.748,127.534 73.481,127.345 73.420 C 127.155 73.360,127.000 73.253,127.000 73.182 C 127.000 73.064,124.910 70.891,123.739 69.791 C 123.470 69.538,123.138 69.217,123.000 69.077 C 122.862 68.936,122.487 68.580,122.167 68.285 C 121.846 67.990,121.127 67.261,120.570 66.666 C 120.012 66.070,118.960 65.021,118.231 64.333 C 117.502 63.646,116.735 62.840,116.525 62.542 C 116.315 62.244,116.042 62.000,115.917 62.000 C 115.792 62.000,115.520 61.756,115.313 61.458 C 115.106 61.160,114.751 60.767,114.524 60.583 C 114.297 60.400,113.955 60.067,113.764 59.843 C 113.573 59.619,113.251 59.282,113.049 59.093 C 112.847 58.904,112.435 58.493,112.133 58.179 C 111.830 57.864,111.461 57.499,111.312 57.367 C 111.077 57.159,109.337 55.427,108.218 54.288 C 108.017 54.084,107.642 53.703,107.385 53.443 C 107.127 53.182,106.724 52.770,106.488 52.526 C 106.253 52.283,105.503 51.543,104.822 50.883 C 104.141 50.222,103.433 49.527,103.250 49.338 C 103.067 49.150,101.979 48.058,100.833 46.912 C 98.348 44.427,97.285 43.277,97.191 42.974 C 97.153 42.851,97.043 42.651,96.947 42.530 C 94.561 39.520,95.342 32.756,98.409 29.855 C 99.533 28.792,99.452 28.764,101.725 30.982 " stroke="none" fill="#f4931d" fill-rule="evenodd"></path><path id="path1" d="M185.101 31.764 C 185.046 31.909,185.000 37.957,185.000 45.205 C 185.000 59.174,185.056 60.287,185.813 61.497 C 185.962 61.734,186.233 62.183,186.417 62.495 C 186.600 62.807,186.906 63.217,187.097 63.406 C 187.928 64.228,189.007 65.167,189.123 65.169 C 189.193 65.171,189.887 65.432,190.667 65.750 L 192.083 66.328 198.750 66.329 C 206.848 66.331,208.848 66.000,211.344 64.243 C 211.924 63.834,212.451 63.500,212.515 63.500 C 212.703 63.500,214.602 61.588,214.935 61.064 C 215.103 60.800,215.447 60.320,215.700 59.997 C 215.953 59.675,216.333 58.925,216.546 58.331 C 217.057 56.899,217.684 56.701,218.023 57.865 C 218.438 59.285,221.601 63.500,222.252 63.500 C 222.322 63.500,222.913 63.855,223.565 64.289 C 224.807 65.116,225.161 65.247,227.997 65.934 C 230.418 66.521,239.587 66.470,241.583 65.859 C 242.225 65.663,243.082 65.414,243.489 65.307 C 245.725 64.716,249.969 60.941,250.585 58.994 C 251.015 57.633,251.641 57.489,252.178 58.625 C 252.384 59.060,252.878 59.880,253.276 60.447 C 253.674 61.013,254.001 61.538,254.001 61.613 C 254.002 61.688,254.274 61.935,254.607 62.162 C 254.939 62.388,255.365 62.782,255.553 63.037 C 255.742 63.291,255.963 63.500,256.045 63.500 C 256.127 63.500,256.581 63.752,257.055 64.060 C 258.436 64.958,258.835 65.141,260.343 65.567 C 263.013 66.322,263.476 66.361,268.917 66.291 C 274.415 66.220,273.928 66.278,277.333 65.292 C 278.028 65.091,278.926 64.601,280.035 63.819 C 280.283 63.643,280.547 63.500,280.622 63.500 C 280.696 63.500,280.943 63.309,281.170 63.076 C 281.397 62.842,281.871 62.374,282.223 62.034 C 283.229 61.062,284.635 58.821,284.963 57.667 C 285.504 55.761,285.687 54.852,285.688 54.045 C 285.690 53.470,285.788 53.053,285.979 52.818 L 286.268 52.461 286.866 53.022 C 287.988 54.075,289.705 55.178,290.587 55.412 C 290.860 55.484,294.820 55.590,299.386 55.647 L 307.689 55.750 308.428 56.532 C 309.548 57.718,309.444 58.825,308.110 59.900 L 307.469 60.417 297.276 60.500 L 287.083 60.583 287.037 63.149 C 286.972 66.754,285.537 66.333,297.900 66.333 L 308.249 66.333 309.583 65.890 C 313.495 64.589,315.716 61.383,315.453 57.417 C 315.281 54.834,314.158 52.892,311.828 51.152 C 310.265 49.985,309.937 49.946,300.917 49.843 C 295.186 49.778,292.651 49.692,292.417 49.557 C 290.875 48.664,290.769 46.480,292.222 45.535 L 292.917 45.083 305.888 45.032 C 315.675 44.993,318.918 45.029,319.096 45.177 C 319.294 45.341,319.333 46.457,319.333 51.864 C 319.333 58.792,319.320 58.659,320.221 61.000 C 320.857 62.653,322.662 64.706,323.978 65.273 C 326.382 66.308,326.560 66.333,331.496 66.333 C 334.855 66.333,336.154 66.279,336.300 66.133 C 336.439 65.994,336.500 65.111,336.500 63.233 L 336.500 60.532 332.125 60.475 L 327.750 60.417 327.128 59.941 C 325.725 58.867,325.756 59.044,325.700 52.000 C 325.658 46.710,325.688 45.699,325.895 45.417 C 326.129 45.098,326.352 45.082,331.091 45.051 C 333.814 45.034,336.147 44.979,336.275 44.930 C 336.464 44.857,336.500 44.315,336.462 42.045 L 336.417 39.250 331.222 39.167 C 328.365 39.121,325.965 39.021,325.889 38.945 C 325.812 38.869,325.726 37.162,325.697 35.153 L 325.643 31.500 322.675 31.500 C 319.005 31.500,319.351 31.090,319.295 35.513 L 319.250 39.083 305.167 39.167 C 289.771 39.258,290.898 39.180,288.925 40.290 C 287.124 41.303,285.000 44.129,285.000 45.513 C 285.000 46.423,283.837 46.001,283.397 44.931 C 283.225 44.511,282.991 44.168,282.878 44.167 C 282.764 44.167,282.389 43.796,282.044 43.343 C 281.699 42.890,281.341 42.515,281.249 42.509 C 281.157 42.504,280.674 42.166,280.176 41.758 C 279.673 41.345,278.748 40.816,278.094 40.567 C 277.447 40.320,276.429 39.927,275.833 39.693 C 274.580 39.202,264.054 38.922,262.358 39.336 C 261.932 39.439,261.358 39.566,261.083 39.616 C 260.808 39.667,260.508 39.766,260.417 39.837 C 260.325 39.907,259.612 40.215,258.833 40.520 C 258.054 40.825,257.267 41.216,257.083 41.388 C 256.900 41.561,256.487 41.872,256.167 42.079 C 255.484 42.520,254.071 43.902,253.692 44.500 C 253.547 44.729,253.182 45.224,252.881 45.600 C 252.580 45.977,252.333 46.378,252.333 46.491 C 252.333 47.860,250.893 47.935,250.575 46.583 C 250.510 46.308,250.291 45.896,250.089 45.667 C 249.886 45.438,249.546 44.987,249.333 44.667 C 247.812 42.376,244.629 40.357,241.167 39.485 C 239.725 39.122,229.707 39.014,228.417 39.347 C 228.050 39.441,227.453 39.594,227.090 39.685 C 226.727 39.776,226.352 39.913,226.257 39.988 C 226.161 40.064,225.896 40.180,225.667 40.246 C 224.823 40.488,223.163 41.369,222.653 41.846 C 222.364 42.116,221.952 42.381,221.737 42.435 C 221.521 42.489,221.302 42.670,221.249 42.837 C 221.196 43.004,220.873 43.393,220.532 43.701 C 219.850 44.317,218.339 46.722,218.014 47.708 C 217.641 48.837,216.972 48.615,216.504 47.208 C 216.297 46.590,215.977 45.917,215.791 45.714 C 215.605 45.511,215.294 45.086,215.101 44.771 C 214.610 43.968,213.260 42.565,212.530 42.096 C 212.193 41.880,211.761 41.554,211.571 41.372 C 211.152 40.971,208.683 39.940,207.083 39.497 C 206.015 39.202,205.320 39.174,198.825 39.171 C 193.536 39.168,191.682 39.116,191.533 38.967 C 191.391 38.825,191.333 37.809,191.333 35.456 C 191.333 33.492,191.263 32.014,191.161 31.822 C 190.921 31.374,185.272 31.319,185.101 31.764 M206.083 45.396 C 207.637 45.942,209.693 47.454,209.935 48.229 C 209.996 48.424,210.217 48.789,210.427 49.040 C 211.789 50.669,211.578 55.760,210.096 56.989 C 209.952 57.109,209.833 57.302,209.833 57.418 C 209.833 57.751,208.176 59.138,207.129 59.681 C 205.714 60.414,204.621 60.520,199.020 60.467 C 192.856 60.408,192.751 60.384,191.837 58.789 L 191.336 57.917 191.335 51.729 C 191.333 44.976,191.291 45.254,192.334 45.117 C 194.117 44.884,205.268 45.110,206.083 45.396 M240.167 45.405 C 241.464 45.825,242.033 46.094,242.505 46.510 C 242.732 46.709,243.085 46.984,243.292 47.122 C 243.891 47.521,245.109 49.495,245.427 50.583 C 246.545 54.408,244.369 58.660,240.636 59.946 C 238.825 60.570,230.895 60.686,228.917 60.118 C 220.844 57.797,221.949 46.082,230.333 45.104 C 232.108 44.897,239.277 45.116,240.167 45.405 M274.023 45.422 C 275.256 45.801,276.309 46.334,276.639 46.746 C 276.792 46.937,277.142 47.251,277.417 47.445 C 277.722 47.661,278.209 48.373,278.667 49.274 L 279.417 50.750 279.417 52.833 C 279.417 54.951,278.998 56.329,278.061 57.291 C 277.950 57.405,277.709 57.689,277.526 57.922 C 276.995 58.597,275.103 59.779,274.050 60.094 C 272.826 60.459,266.498 60.631,264.286 60.358 C 255.106 59.226,254.733 46.704,263.833 45.153 C 265.255 44.911,273.027 45.116,274.023 45.422 M261.292 73.449 C 261.020 73.519,261.000 73.972,261.000 79.991 L 261.000 86.458 261.425 87.218 C 262.685 89.472,270.376 89.477,272.717 87.225 C 275.306 84.733,275.161 80.208,272.426 78.166 C 270.690 76.870,270.528 76.833,266.541 76.833 C 262.123 76.833,262.333 76.925,262.333 74.994 C 262.333 74.172,262.264 73.500,262.180 73.500 C 262.096 73.500,261.927 73.471,261.805 73.436 C 261.683 73.402,261.452 73.407,261.292 73.449 M277.458 73.448 C 277.268 73.498,277.167 73.687,277.167 73.992 C 277.167 75.049,278.546 75.195,278.634 74.147 C 278.681 73.586,278.342 73.251,277.833 73.355 C 277.787 73.364,277.619 73.406,277.458 73.448 M282.208 73.451 L 281.833 73.523 281.833 81.006 C 281.833 89.234,281.783 88.833,282.817 88.833 C 283.425 88.833,283.465 88.377,283.491 81.027 C 283.519 72.805,283.584 73.186,282.208 73.451 M225.097 76.778 C 224.829 76.824,224.271 77.120,223.857 77.437 C 222.881 78.181,222.575 78.121,222.267 77.125 C 222.204 76.920,222.004 76.833,221.593 76.833 L 221.008 76.833 220.963 82.613 C 220.914 88.686,220.931 88.833,221.647 88.833 C 222.478 88.833,222.528 88.623,222.512 85.159 C 222.494 81.022,222.635 80.398,223.838 79.308 C 225.596 77.715,227.818 77.784,229.514 79.484 C 230.764 80.736,230.745 80.659,230.789 84.750 C 230.810 86.767,230.829 88.471,230.831 88.538 C 230.836 88.767,231.635 88.862,231.984 88.675 C 232.320 88.495,232.333 88.366,232.333 85.257 C 232.333 80.054,233.120 78.525,235.951 78.229 C 239.377 77.871,240.869 80.042,240.823 85.317 C 240.793 88.605,240.826 88.833,241.323 88.833 C 241.972 88.833,242.047 88.455,242.080 85.037 C 242.123 80.527,241.677 79.016,239.961 77.866 C 238.225 76.702,238.378 76.750,236.417 76.756 C 234.433 76.762,233.931 76.961,232.417 78.341 C 231.781 78.920,231.237 79.094,231.054 78.776 C 230.905 78.517,229.485 77.394,228.833 77.019 C 228.421 76.782,225.997 76.626,225.097 76.778 M247.583 77.262 C 247.217 77.486,246.644 77.815,246.311 77.995 C 245.977 78.174,245.565 78.539,245.394 78.806 C 245.223 79.073,244.858 79.615,244.583 80.009 C 243.392 81.717,243.872 84.929,245.622 86.948 C 247.571 89.198,254.474 89.578,256.703 87.558 C 260.014 84.558,259.611 79.772,255.861 77.577 L 254.590 76.833 251.420 76.845 C 248.364 76.856,248.226 76.871,247.583 77.262 M277.129 82.598 L 277.083 88.380 277.457 88.625 C 277.683 88.773,277.997 88.828,278.251 88.765 L 278.671 88.659 278.627 82.788 L 278.583 76.917 277.879 76.866 L 277.175 76.815 277.129 82.598 M289.250 77.454 C 285.724 79.551,284.996 84.132,287.741 86.944 C 289.543 88.790,293.787 89.395,297.213 88.294 C 298.451 87.896,300.135 86.426,299.938 85.913 C 299.779 85.498,298.606 85.599,298.036 86.078 C 295.788 87.970,290.728 87.875,288.751 85.905 C 288.122 85.278,287.716 84.092,288.010 83.738 C 288.174 83.540,289.219 83.500,294.250 83.500 C 300.934 83.500,300.800 83.522,300.584 82.465 C 300.240 80.773,299.220 78.500,298.806 78.500 C 298.743 78.500,298.576 78.385,298.435 78.245 C 298.295 78.104,297.720 77.729,297.157 77.411 L 296.135 76.833 293.192 76.846 L 290.250 76.860 289.250 77.454 M304.678 77.625 C 304.672 77.923,304.742 78.167,304.833 78.167 C 305.031 78.167,305.031 77.877,304.833 77.417 C 304.713 77.137,304.688 77.171,304.678 77.625 M254.501 78.584 C 257.538 79.655,258.375 84.037,255.941 86.120 C 253.936 87.836,248.812 87.880,246.944 86.198 C 246.401 85.709,245.667 84.495,245.667 84.086 C 245.667 83.867,245.601 83.514,245.520 83.302 C 244.976 81.871,246.426 79.367,248.224 78.634 C 249.170 78.248,253.452 78.214,254.501 78.584 M270.482 78.675 C 273.848 80.123,274.050 84.738,270.833 86.693 L 269.917 87.250 266.782 87.302 L 263.648 87.354 262.991 86.696 L 262.333 86.039 262.333 82.450 C 262.333 80.476,262.379 78.742,262.434 78.597 C 262.608 78.146,269.405 78.212,270.482 78.675 M296.419 78.684 C 297.914 79.472,299.092 81.104,298.577 81.673 C 298.255 82.029,288.555 82.188,288.016 81.847 C 287.280 81.381,288.927 79.099,290.391 78.554 C 291.386 78.184,295.645 78.275,296.419 78.684 " stroke="none" fill="#170b0b" fill-rule="evenodd"></path><path id="path2" d="M52.833 57.083 L 52.833 114.167 200.000 114.167 L 347.167 114.167 347.167 57.083 L 347.167 0.000 200.000 0.000 L 52.833 0.000 52.833 57.083 M82.932 10.351 C 83.657 10.544,84.606 10.765,85.041 10.841 C 85.476 10.917,85.913 11.030,86.011 11.090 C 86.110 11.151,86.696 11.264,87.314 11.342 C 87.932 11.419,89.739 11.793,91.331 12.171 C 92.922 12.549,94.830 12.962,95.570 13.089 C 96.804 13.300,97.529 13.458,100.167 14.090 C 100.671 14.210,101.533 14.398,102.083 14.507 C 102.633 14.616,104.471 15.007,106.167 15.376 C 107.862 15.745,109.625 16.114,110.083 16.195 C 111.298 16.411,112.152 16.595,114.667 17.181 C 115.904 17.470,117.704 17.852,118.667 18.031 C 121.422 18.542,121.657 18.593,123.333 19.043 C 124.204 19.276,125.329 19.519,125.833 19.581 C 126.337 19.643,127.013 19.759,127.333 19.838 C 129.895 20.470,131.637 20.857,132.917 21.080 C 133.742 21.224,134.717 21.409,135.083 21.492 C 136.166 21.735,138.699 22.341,139.398 22.524 C 139.754 22.617,140.654 22.789,141.398 22.905 C 142.142 23.022,144.100 23.423,145.750 23.797 C 147.400 24.171,149.387 24.605,150.167 24.761 C 150.946 24.918,152.408 25.255,153.417 25.511 C 154.425 25.767,155.662 26.022,156.167 26.078 C 157.107 26.182,157.340 26.229,159.917 26.835 C 162.725 27.495,163.416 27.645,164.833 27.900 C 166.317 28.167,168.727 28.874,169.057 29.140 C 169.163 29.225,169.475 29.344,169.750 29.404 C 170.315 29.526,173.654 31.852,173.902 32.295 C 173.990 32.454,174.234 32.718,174.443 32.883 C 174.652 33.048,175.235 33.809,175.739 34.574 C 176.777 36.150,177.147 36.918,177.830 38.917 C 178.018 39.467,178.212 40.329,178.261 40.833 C 178.310 41.337,178.428 42.016,178.524 42.342 C 178.778 43.205,178.299 46.546,177.667 48.325 C 177.392 49.100,177.167 49.825,177.167 49.936 C 177.167 50.119,176.235 51.661,175.862 52.096 C 175.777 52.195,175.601 52.479,175.471 52.727 C 175.341 52.976,174.563 53.890,173.742 54.759 C 172.448 56.129,167.461 61.278,166.971 61.750 C 166.876 61.842,166.188 62.540,165.441 63.302 C 164.694 64.064,162.996 65.797,161.667 67.153 C 160.337 68.508,157.188 71.737,154.667 74.328 C 146.034 83.201,144.332 84.833,143.713 84.833 C 143.578 84.833,143.269 84.938,143.026 85.066 C 142.782 85.193,142.048 85.497,141.394 85.740 L 140.204 86.181 147.687 93.632 C 151.803 97.730,155.319 101.215,155.502 101.375 C 156.310 102.086,155.697 102.514,154.435 102.121 C 153.562 101.849,151.257 101.344,149.333 101.003 C 148.737 100.898,147.180 100.553,145.872 100.238 C 144.565 99.923,143.027 99.596,142.456 99.512 C 141.884 99.428,140.254 99.084,138.833 98.747 C 137.412 98.410,135.462 97.993,134.500 97.820 C 133.537 97.647,132.300 97.389,131.750 97.247 C 129.894 96.768,128.589 96.482,127.523 96.322 C 126.940 96.234,125.627 95.967,124.606 95.729 C 122.517 95.240,121.159 94.945,119.333 94.582 C 117.151 94.148,114.502 93.554,113.750 93.330 C 113.475 93.248,112.755 93.103,112.151 93.008 C 111.546 92.913,110.271 92.656,109.317 92.436 C 107.356 91.985,105.692 91.624,101.500 90.737 C 99.896 90.397,98.174 90.018,97.673 89.893 C 97.173 89.769,96.565 89.667,96.323 89.667 C 96.081 89.667,95.666 89.598,95.400 89.515 C 95.134 89.431,94.017 89.163,92.917 88.918 C 91.817 88.674,90.786 88.405,90.627 88.320 C 90.468 88.236,90.120 88.167,89.854 88.167 C 89.294 88.167,86.614 87.634,84.917 87.185 C 84.275 87.016,83.300 86.793,82.750 86.691 C 80.180 86.212,78.150 85.786,77.076 85.498 C 76.430 85.325,75.024 85.029,73.953 84.840 C 70.078 84.157,66.507 83.019,66.083 82.332 C 66.025 82.239,65.665 82.003,65.284 81.808 C 64.306 81.309,61.653 78.603,61.107 77.546 C 60.954 77.251,60.660 76.760,60.453 76.455 C 60.246 76.150,59.937 75.454,59.765 74.908 C 59.594 74.363,59.391 73.767,59.315 73.583 C 58.083 70.623,58.634 64.113,60.323 61.669 C 60.482 61.439,60.665 61.137,60.728 61.000 C 61.220 59.942,63.089 57.719,65.167 55.723 C 65.873 55.044,65.482 55.442,68.581 52.250 C 70.005 50.783,71.323 49.433,71.509 49.250 C 71.695 49.067,72.088 48.662,72.382 48.350 C 72.676 48.039,73.892 46.787,75.083 45.568 C 76.275 44.349,77.446 43.142,77.687 42.885 C 77.927 42.627,78.227 42.328,78.353 42.219 C 78.480 42.111,79.821 40.745,81.333 39.185 C 92.368 27.805,92.995 27.267,96.043 26.568 C 96.296 26.510,96.541 26.402,96.587 26.327 C 96.705 26.137,94.508 23.741,93.060 22.480 C 92.889 22.332,92.178 21.619,91.478 20.897 C 90.779 20.174,89.954 19.336,89.645 19.035 C 88.646 18.058,88.513 17.925,87.961 17.350 C 87.661 17.038,86.825 16.213,86.102 15.516 C 84.528 14.000,84.546 14.018,83.117 12.521 C 82.494 11.868,81.915 11.333,81.830 11.333 C 81.575 11.333,81.122 10.522,81.226 10.251 C 81.349 9.932,81.359 9.932,82.932 10.351 M98.125 30.239 C 97.598 30.828,97.167 31.411,97.167 31.535 C 97.167 31.658,97.050 31.926,96.907 32.130 C 94.194 36.003,95.312 41.198,99.864 45.876 C 102.618 48.706,101.770 47.849,105.667 51.737 C 107.454 53.520,108.992 55.055,109.083 55.148 C 116.110 62.266,137.248 83.170,137.501 83.250 C 137.922 83.384,139.285 82.038,139.862 80.917 C 140.051 80.550,140.297 80.137,140.408 80.000 C 141.843 78.227,141.778 73.325,140.282 70.444 L 139.431 68.805 122.141 51.521 C 112.631 42.015,104.641 34.038,104.384 33.795 C 104.127 33.552,103.055 32.479,102.001 31.410 C 99.331 28.704,99.462 28.743,98.125 30.239 M191.633 31.200 C 191.776 31.342,191.833 32.371,191.833 34.770 C 191.833 36.623,191.879 38.258,191.934 38.403 C 192.024 38.637,192.761 38.667,198.518 38.667 C 205.210 38.667,206.834 38.789,208.872 39.448 C 209.994 39.811,212.505 41.263,213.012 41.843 C 213.248 42.113,213.522 42.333,213.621 42.333 C 213.720 42.333,214.014 42.594,214.275 42.913 C 214.536 43.232,215.012 43.784,215.333 44.139 C 215.654 44.493,216.201 45.357,216.550 46.059 C 217.299 47.569,217.660 47.713,217.959 46.625 C 218.182 45.815,219.822 43.558,220.874 42.612 C 221.869 41.717,223.285 40.667,223.496 40.667 C 223.594 40.667,223.953 40.482,224.295 40.256 C 227.553 38.106,240.977 38.005,244.583 40.104 C 245.042 40.370,245.705 40.737,246.057 40.919 C 246.410 41.101,246.898 41.475,247.143 41.750 C 247.387 42.025,247.789 42.340,248.035 42.451 C 248.281 42.561,248.612 42.861,248.771 43.117 C 248.930 43.374,249.302 43.846,249.598 44.167 C 249.894 44.487,250.381 45.222,250.680 45.798 C 251.357 47.101,251.531 47.078,252.345 45.584 C 252.695 44.942,253.173 44.264,253.407 44.077 C 253.642 43.890,253.833 43.669,253.833 43.585 C 253.833 43.388,254.853 42.333,255.043 42.333 C 255.123 42.333,255.370 42.118,255.591 41.854 C 255.813 41.591,256.389 41.174,256.872 40.929 C 257.355 40.683,258.050 40.303,258.417 40.083 C 261.937 37.977,275.257 38.103,278.705 40.275 C 279.047 40.490,279.385 40.667,279.456 40.667 C 279.616 40.667,280.973 41.635,281.441 42.083 C 281.632 42.267,282.042 42.654,282.353 42.943 C 282.663 43.233,283.210 43.851,283.569 44.318 C 284.304 45.275,284.615 45.377,284.759 44.708 C 284.949 43.826,285.420 42.925,286.124 42.101 C 286.514 41.644,286.833 41.205,286.833 41.126 C 286.833 41.048,287.099 40.872,287.424 40.736 C 287.749 40.601,288.059 40.374,288.113 40.232 C 288.237 39.910,289.648 39.234,290.750 38.970 C 291.345 38.827,295.497 38.742,305.250 38.673 C 312.767 38.620,318.935 38.559,318.958 38.538 C 318.981 38.517,319.000 36.958,319.000 35.072 C 319.000 30.573,318.615 31.000,322.667 31.000 C 326.713 31.000,326.333 30.590,326.333 34.956 C 326.333 37.309,326.391 38.325,326.533 38.467 C 326.680 38.613,328.032 38.667,331.580 38.667 C 337.756 38.667,337.167 38.309,337.167 42.061 C 337.167 45.977,337.808 45.565,331.555 45.667 L 326.417 45.750 326.417 52.137 L 326.417 58.524 327.119 59.179 L 327.820 59.833 332.054 59.833 C 336.117 59.833,336.307 59.848,336.738 60.187 L 337.188 60.541 337.136 63.412 C 337.066 67.228,337.716 66.833,331.506 66.833 C 325.903 66.833,325.189 66.732,323.902 65.750 C 323.601 65.521,323.259 65.333,323.140 65.333 C 322.904 65.333,320.667 63.179,320.667 62.952 C 320.667 62.874,320.479 62.565,320.250 62.265 C 319.166 60.844,319.115 60.440,319.045 52.708 L 318.980 45.667 306.032 45.669 C 298.910 45.670,292.933 45.713,292.750 45.765 C 291.828 46.023,291.260 47.479,291.775 48.264 C 292.422 49.252,292.333 49.242,301.333 49.334 C 309.577 49.417,309.584 49.417,310.333 49.806 C 310.746 50.021,311.383 50.346,311.750 50.530 C 315.720 52.518,317.252 58.471,314.805 62.403 C 314.184 63.401,312.357 65.333,312.035 65.333 C 311.912 65.333,311.565 65.521,311.265 65.750 C 309.854 66.826,309.869 66.825,297.798 66.829 C 287.055 66.833,286.842 66.827,286.669 66.504 C 286.558 66.298,286.509 65.067,286.538 63.217 L 286.583 60.260 287.000 60.049 C 287.322 59.886,289.698 59.838,297.439 59.836 L 307.461 59.833 308.075 59.154 C 308.733 58.426,308.769 57.898,308.217 57.057 C 307.772 56.377,307.268 56.334,299.683 56.327 C 292.225 56.321,291.845 56.294,289.917 55.620 C 288.640 55.175,288.167 54.967,288.167 54.851 C 288.167 54.721,286.607 53.500,286.440 53.500 C 286.381 53.500,286.333 53.834,286.333 54.242 C 286.333 56.086,285.086 59.300,283.689 61.055 C 282.830 62.134,281.116 63.833,280.885 63.834 C 280.811 63.834,280.525 64.029,280.250 64.268 C 279.819 64.642,278.866 65.143,276.750 66.105 C 274.506 67.126,262.084 67.178,260.200 66.175 C 259.852 65.989,258.604 65.449,257.879 65.170 C 257.584 65.056,257.193 64.840,257.010 64.690 C 256.828 64.540,256.291 64.154,255.816 63.833 C 254.245 62.771,252.531 60.753,252.083 59.438 C 251.731 58.403,251.030 58.521,250.725 59.667 C 250.612 60.090,250.063 60.914,249.392 61.667 C 249.188 61.896,248.783 62.365,248.493 62.708 C 248.203 63.052,247.867 63.333,247.747 63.333 C 247.626 63.333,247.503 63.401,247.472 63.483 C 247.367 63.765,244.941 65.333,244.608 65.333 C 244.426 65.333,244.158 65.431,244.013 65.550 C 243.686 65.818,242.114 66.431,241.333 66.594 C 238.651 67.154,227.608 66.785,226.083 66.084 C 225.808 65.958,225.471 65.813,225.333 65.762 C 225.196 65.711,224.971 65.603,224.833 65.523 C 224.696 65.442,224.246 65.213,223.833 65.014 C 222.296 64.272,219.969 62.328,219.427 61.333 C 219.302 61.104,219.008 60.710,218.773 60.456 C 218.538 60.203,218.213 59.623,218.052 59.168 C 217.890 58.713,217.669 58.306,217.560 58.264 C 217.380 58.195,216.501 59.320,216.499 59.621 C 216.498 59.821,215.606 61.118,214.893 61.958 C 213.809 63.235,211.010 65.333,210.391 65.333 C 210.236 65.333,209.991 65.431,209.846 65.550 C 209.520 65.818,208.013 66.388,206.956 66.642 C 205.505 66.992,192.090 66.901,190.978 66.534 C 187.626 65.428,185.513 63.042,184.569 59.294 C 184.221 57.916,184.293 31.700,184.645 31.276 C 184.937 30.924,191.288 30.855,191.633 31.200 M191.835 51.532 C 191.837 58.715,191.798 58.419,192.870 59.213 L 193.709 59.833 199.396 59.833 C 205.505 59.833,205.425 59.842,207.453 58.887 C 211.134 57.151,211.951 50.872,208.898 47.775 C 208.503 47.375,207.708 46.755,207.132 46.398 L 206.083 45.750 198.958 45.699 L 191.833 45.647 191.835 51.532 M229.047 45.822 C 228.399 45.984,226.231 47.249,226.048 47.572 C 225.976 47.700,225.648 48.094,225.319 48.449 C 223.550 50.356,223.591 55.183,225.391 57.120 C 225.751 57.507,226.150 57.974,226.278 58.157 C 226.533 58.520,227.532 59.004,229.069 59.509 C 230.712 60.049,238.648 59.995,240.167 59.433 C 242.063 58.733,242.400 58.541,243.182 57.720 C 244.860 55.958,245.746 52.184,244.861 50.567 C 244.766 50.393,244.501 49.837,244.274 49.333 C 243.887 48.475,242.467 46.833,242.113 46.833 C 242.025 46.833,241.570 46.590,241.102 46.292 L 240.250 45.750 234.917 45.719 C 231.983 45.702,229.342 45.749,229.047 45.822 M262.917 45.789 C 262.642 45.829,262.304 45.959,262.167 46.078 C 262.029 46.197,261.592 46.458,261.195 46.658 C 258.154 48.187,256.630 54.012,258.687 56.242 C 258.768 56.329,258.833 56.493,258.833 56.606 C 258.833 57.372,261.184 59.000,263.151 59.597 C 264.437 59.988,272.633 59.922,273.833 59.512 C 275.608 58.905,276.271 58.513,277.153 57.547 C 280.556 53.820,278.622 46.923,273.864 45.817 C 273.253 45.675,263.871 45.651,262.917 45.789 M262.644 73.226 C 262.966 73.569,263.007 73.771,262.965 74.815 C 262.903 76.362,262.829 76.327,266.167 76.332 C 270.434 76.338,271.662 76.657,273.172 78.153 C 275.411 80.369,275.803 84.081,274.042 86.387 C 273.790 86.718,273.445 87.184,273.276 87.422 C 273.107 87.660,272.769 87.939,272.526 88.043 C 272.282 88.146,271.933 88.355,271.750 88.506 C 270.774 89.315,264.530 89.780,262.911 89.165 C 262.088 88.852,261.033 87.807,260.678 86.952 C 260.212 85.829,260.137 73.854,260.593 73.204 C 260.967 72.670,262.134 72.683,262.644 73.226 M278.994 73.198 C 279.911 74.183,279.266 75.204,277.772 75.132 L 276.750 75.083 276.700 74.228 C 276.621 72.865,278.075 72.212,278.994 73.198 M283.695 73.109 C 284.103 73.478,284.174 88.532,283.770 89.084 C 283.520 89.426,281.955 89.522,281.646 89.213 C 281.411 88.977,281.453 73.341,281.690 73.055 C 281.956 72.735,283.322 72.771,283.695 73.109 M228.167 76.371 C 229.344 76.721,230.506 77.355,230.869 77.846 C 231.326 78.464,231.862 78.397,232.487 77.643 C 232.880 77.168,234.069 76.503,234.533 76.498 C 234.652 76.496,235.076 76.382,235.474 76.243 C 237.517 75.531,241.069 77.377,242.171 79.723 C 242.484 80.387,242.503 80.725,242.461 84.835 L 242.417 89.236 241.833 89.358 C 240.251 89.689,240.141 89.416,240.152 85.197 C 240.161 81.767,240.159 81.746,239.706 80.836 C 238.328 78.073,234.870 77.994,233.206 80.686 C 232.849 81.264,232.833 81.449,232.833 85.029 C 232.833 89.487,232.691 89.802,230.897 89.307 C 230.173 89.107,230.178 89.132,230.126 84.833 C 230.075 80.566,229.936 80.082,228.533 79.298 C 226.977 78.429,225.599 78.529,224.304 79.605 C 223.041 80.654,223.015 80.760,223.007 84.969 C 222.999 89.341,223.001 89.333,221.754 89.333 C 220.284 89.333,220.333 89.564,220.333 82.717 L 220.333 76.841 220.754 76.566 C 221.322 76.193,222.464 76.343,222.838 76.840 C 223.100 77.187,223.136 77.191,223.627 76.937 C 225.304 76.070,226.604 75.908,228.167 76.371 M254.366 76.505 C 256.036 76.813,258.079 78.250,258.608 79.488 C 260.284 83.407,259.312 86.698,255.917 88.597 L 254.750 89.250 251.417 89.250 C 248.167 89.250,248.065 89.240,247.353 88.833 C 246.952 88.604,246.452 88.322,246.243 88.206 C 243.293 86.573,242.471 81.021,244.837 78.706 C 246.532 77.047,247.028 76.746,248.443 76.508 C 249.629 76.309,253.296 76.307,254.366 76.505 M279.108 76.687 C 279.468 76.986,279.436 88.446,279.074 88.963 C 278.715 89.475,277.106 89.509,276.839 89.011 C 276.729 88.806,276.667 86.501,276.667 82.672 L 276.667 76.656 277.042 76.496 C 277.491 76.305,278.793 76.425,279.108 76.687 M296.917 76.754 C 297.813 77.062,299.260 78.104,299.667 78.734 C 300.855 80.575,300.898 80.690,300.969 82.166 C 301.073 84.332,301.616 84.167,294.405 84.167 C 287.536 84.167,287.823 84.096,289.125 85.462 C 290.762 87.179,296.236 87.354,297.658 85.735 C 298.031 85.310,298.273 85.202,299.038 85.123 C 300.559 84.966,301.105 85.608,300.229 86.522 C 299.988 86.773,299.706 87.152,299.602 87.364 C 299.497 87.576,299.164 87.874,298.861 88.026 C 298.558 88.178,298.184 88.412,298.030 88.547 C 297.306 89.177,296.104 89.363,293.124 89.305 L 290.250 89.250 289.107 88.607 C 285.830 86.763,284.320 82.082,286.273 79.820 C 286.398 79.675,286.500 79.441,286.500 79.299 C 286.500 78.991,288.345 77.338,289.150 76.924 C 290.416 76.272,295.212 76.167,296.917 76.754 M305.242 76.896 C 305.599 77.130,305.663 77.125,305.996 76.836 C 306.804 76.136,307.516 77.246,306.956 78.331 C 306.599 79.022,304.425 79.173,304.223 78.521 C 303.931 77.580,303.879 77.555,303.593 78.219 C 303.232 79.059,302.832 78.983,302.554 78.023 C 302.439 77.623,302.262 77.199,302.163 77.079 C 301.678 76.494,304.384 76.334,305.242 76.896 M248.250 79.230 C 245.016 80.754,245.208 85.368,248.553 86.524 C 250.668 87.255,254.641 86.788,255.634 85.691 C 257.687 83.423,257.251 80.559,254.653 79.243 C 253.458 78.637,249.523 78.629,248.250 79.230 M263.039 79.115 C 262.741 79.718,262.883 85.712,263.207 86.208 C 263.678 86.927,268.556 87.097,270.250 86.452 C 273.012 85.401,273.311 81.062,270.729 79.500 L 269.764 78.917 266.477 78.865 C 263.442 78.818,263.177 78.837,263.039 79.115 M290.403 79.223 C 289.440 79.680,288.333 80.734,288.333 81.192 C 288.333 81.485,288.581 81.500,293.268 81.500 C 297.713 81.500,298.192 81.474,298.100 81.235 C 298.044 81.089,297.956 80.807,297.904 80.610 C 297.851 80.412,297.383 79.952,296.863 79.587 L 295.917 78.925 293.583 78.873 C 291.403 78.824,291.194 78.847,290.403 79.223 " stroke="none" fill="#fbfbfb" fill-rule="evenodd"></path><path id="path3" d="M81.278 10.111 C 81.087 10.302,81.155 10.617,81.458 10.943 C 81.619 11.116,81.694 11.184,81.625 11.095 C 81.415 10.824,81.485 10.465,81.792 10.232 C 82.064 10.025,82.060 10.010,81.736 10.005 C 81.545 10.002,81.339 10.050,81.278 10.111 M83.119 12.501 C 83.506 12.904,83.848 13.200,83.880 13.158 C 83.912 13.117,83.596 12.788,83.177 12.426 L 82.417 11.769 83.119 12.501 M86.333 15.750 C 86.644 16.071,86.936 16.333,86.982 16.333 C 87.028 16.333,86.811 16.071,86.500 15.750 C 86.189 15.429,85.897 15.167,85.851 15.167 C 85.805 15.167,86.022 15.429,86.333 15.750 M121.250 18.667 C 121.433 18.745,121.733 18.810,121.917 18.810 L 122.250 18.810 121.917 18.667 C 121.733 18.588,121.433 18.523,121.250 18.523 L 120.917 18.523 121.250 18.667 M91.250 20.667 C 91.608 21.033,91.938 21.333,91.984 21.333 C 92.030 21.333,91.775 21.033,91.417 20.667 C 91.059 20.300,90.728 20.000,90.682 20.000 C 90.637 20.000,90.892 20.300,91.250 20.667 M136.750 22.000 C 136.933 22.079,137.196 22.143,137.333 22.143 C 137.491 22.143,137.460 22.090,137.250 22.000 C 137.067 21.921,136.804 21.857,136.667 21.857 C 136.509 21.857,136.540 21.910,136.750 22.000 M144.417 23.667 C 144.600 23.745,144.900 23.808,145.083 23.805 C 145.351 23.801,145.335 23.774,145.000 23.667 C 144.430 23.484,143.992 23.484,144.417 23.667 M97.824 30.458 L 97.250 31.083 97.875 30.509 C 98.457 29.974,98.577 29.833,98.449 29.833 C 98.422 29.833,98.140 30.115,97.824 30.458 M184.645 31.276 C 184.293 31.700,184.221 57.916,184.569 59.294 C 185.513 63.042,187.626 65.428,190.978 66.534 C 192.090 66.901,205.505 66.992,206.956 66.642 C 208.013 66.388,209.520 65.818,209.846 65.550 C 209.991 65.431,210.236 65.333,210.391 65.333 C 211.010 65.333,213.809 63.235,214.893 61.958 C 215.606 61.118,216.498 59.821,216.499 59.621 C 216.501 59.320,217.380 58.195,217.560 58.264 C 217.669 58.306,217.889 58.711,218.051 59.165 C 218.212 59.619,218.566 60.235,218.839 60.533 C 219.111 60.831,219.333 61.135,219.333 61.208 C 219.333 61.476,221.273 63.384,222.148 63.976 C 223.618 64.970,224.236 65.328,224.493 65.331 C 224.706 65.333,224.029 64.855,222.434 63.879 C 221.715 63.438,219.753 61.483,219.458 60.914 C 219.317 60.640,219.059 60.287,218.885 60.130 C 218.711 59.973,218.385 59.352,218.160 58.751 C 217.835 57.884,217.685 57.667,217.434 57.704 C 217.094 57.753,217.051 57.816,216.485 59.083 C 215.487 61.319,212.166 64.581,210.262 65.195 C 210.072 65.256,209.504 65.469,209.000 65.667 C 206.714 66.566,206.853 66.552,199.510 66.623 C 194.743 66.669,192.367 66.632,191.843 66.503 C 191.057 66.309,188.823 65.287,188.351 64.906 C 188.204 64.787,187.848 64.497,187.560 64.262 C 186.873 63.701,185.516 61.705,185.331 60.984 C 185.251 60.672,185.108 60.117,185.013 59.750 C 184.751 58.733,184.770 31.630,185.033 31.367 C 185.174 31.226,186.107 31.167,188.167 31.167 C 191.828 31.167,191.499 30.807,191.502 34.825 C 191.504 37.115,191.567 38.207,191.716 38.500 L 191.926 38.917 199.505 39.005 C 206.891 39.090,207.111 39.102,208.188 39.480 C 212.086 40.846,215.436 43.775,216.599 46.833 C 217.059 48.042,217.667 48.213,217.966 47.217 C 218.493 45.459,222.567 40.833,223.587 40.833 C 223.642 40.833,224.301 40.545,225.052 40.192 C 227.370 39.103,227.541 39.083,234.583 39.084 C 241.697 39.084,241.793 39.096,244.431 40.349 C 247.005 41.572,249.789 44.260,250.762 46.460 C 251.276 47.622,251.574 47.570,252.286 46.195 C 253.368 44.105,256.276 41.165,257.667 40.755 C 257.896 40.687,258.383 40.460,258.750 40.250 C 260.639 39.168,261.328 39.083,268.250 39.083 C 275.213 39.083,275.531 39.118,277.604 40.098 C 278.257 40.406,278.985 40.733,279.222 40.823 C 280.259 41.217,282.832 43.589,283.705 44.955 C 284.313 45.908,284.762 45.915,284.921 44.975 C 285.248 43.036,287.161 40.881,289.667 39.626 L 290.750 39.083 304.917 39.000 L 319.083 38.917 319.167 35.250 C 319.212 33.233,319.311 31.490,319.385 31.375 C 319.639 30.982,325.613 31.087,325.827 31.489 C 325.930 31.680,326.000 33.165,326.000 35.144 C 326.000 39.457,325.358 39.000,331.415 39.000 C 334.105 39.000,336.425 39.046,336.570 39.101 C 337.014 39.272,336.959 44.921,336.511 45.161 C 336.310 45.269,334.345 45.333,331.281 45.333 C 327.288 45.333,326.338 45.377,326.181 45.566 C 326.041 45.735,326.001 47.523,326.036 52.147 L 326.083 58.496 326.877 59.290 L 327.670 60.083 332.043 60.167 C 334.449 60.212,336.510 60.311,336.625 60.385 C 336.989 60.620,336.913 65.865,336.539 66.326 C 336.098 66.871,326.757 66.775,325.410 66.212 C 323.536 65.429,320.833 63.409,320.833 62.792 C 320.833 62.719,320.636 62.361,320.394 61.996 C 319.301 60.344,319.270 60.099,319.172 52.417 L 319.083 45.417 306.333 45.370 C 291.252 45.314,291.653 45.266,291.428 47.169 C 291.356 47.776,291.366 47.817,291.479 47.388 C 291.963 45.560,291.022 45.672,306.032 45.669 L 318.980 45.667 319.045 52.708 C 319.115 60.440,319.166 60.844,320.250 62.265 C 320.479 62.565,320.667 62.874,320.667 62.952 C 320.667 63.179,322.904 65.333,323.140 65.333 C 323.259 65.333,323.601 65.521,323.902 65.750 C 325.189 66.732,325.903 66.833,331.506 66.833 C 337.716 66.833,337.066 67.228,337.136 63.412 L 337.188 60.541 336.738 60.187 C 336.307 59.848,336.117 59.833,332.054 59.833 L 327.820 59.833 327.119 59.179 L 326.417 58.524 326.417 52.137 L 326.417 45.750 331.555 45.667 C 337.808 45.565,337.167 45.977,337.167 42.061 C 337.167 38.309,337.756 38.667,331.580 38.667 C 328.032 38.667,326.680 38.613,326.533 38.467 C 326.391 38.325,326.333 37.309,326.333 34.956 C 326.333 30.590,326.713 31.000,322.667 31.000 C 318.615 31.000,319.000 30.573,319.000 35.072 C 319.000 36.958,318.981 38.517,318.958 38.538 C 318.935 38.559,312.767 38.620,305.250 38.673 C 295.497 38.742,291.345 38.827,290.750 38.970 C 289.648 39.234,288.237 39.910,288.113 40.232 C 288.059 40.374,287.749 40.601,287.424 40.736 C 287.099 40.872,286.833 41.048,286.833 41.126 C 286.833 41.205,286.514 41.644,286.124 42.101 C 285.420 42.925,284.949 43.826,284.759 44.708 C 284.615 45.377,284.304 45.275,283.569 44.318 C 283.210 43.851,282.663 43.233,282.353 42.943 C 282.042 42.654,281.632 42.267,281.441 42.083 C 280.973 41.635,279.616 40.667,279.456 40.667 C 279.385 40.667,279.047 40.490,278.705 40.275 C 275.257 38.103,261.937 37.977,258.417 40.083 C 258.050 40.303,257.355 40.683,256.872 40.929 C 256.389 41.174,255.813 41.591,255.591 41.854 C 255.370 42.118,255.123 42.333,255.043 42.333 C 254.853 42.333,253.833 43.388,253.833 43.585 C 253.833 43.669,253.642 43.890,253.407 44.077 C 253.173 44.264,252.695 44.942,252.345 45.584 C 251.531 47.078,251.357 47.101,250.680 45.798 C 250.381 45.222,249.894 44.487,249.598 44.167 C 249.302 43.846,248.930 43.374,248.771 43.117 C 248.612 42.861,248.281 42.561,248.035 42.451 C 247.789 42.340,247.387 42.025,247.143 41.750 C 246.898 41.475,246.410 41.101,246.057 40.919 C 245.705 40.737,245.042 40.370,244.583 40.104 C 240.977 38.005,227.553 38.106,224.295 40.256 C 223.953 40.482,223.594 40.667,223.496 40.667 C 223.285 40.667,221.869 41.717,220.874 42.612 C 219.822 43.558,218.182 45.815,217.959 46.625 C 217.660 47.713,217.299 47.569,216.550 46.059 C 216.201 45.357,215.654 44.493,215.333 44.139 C 215.012 43.784,214.536 43.232,214.275 42.913 C 214.014 42.594,213.720 42.333,213.621 42.333 C 213.522 42.333,213.248 42.113,213.012 41.843 C 212.505 41.263,209.994 39.811,208.872 39.448 C 206.834 38.789,205.210 38.667,198.518 38.667 C 192.761 38.667,192.024 38.637,191.934 38.403 C 191.879 38.258,191.833 36.623,191.833 34.770 C 191.833 32.371,191.776 31.342,191.633 31.200 C 191.288 30.855,184.937 30.924,184.645 31.276 M102.583 32.000 C 102.941 32.367,103.272 32.667,103.318 32.667 C 103.363 32.667,103.108 32.367,102.750 32.000 C 102.392 31.633,102.062 31.333,102.016 31.333 C 101.970 31.333,102.225 31.633,102.583 32.000 M105.953 35.334 C 106.339 35.737,106.681 36.033,106.713 35.992 C 106.745 35.950,106.429 35.621,106.011 35.259 L 105.250 34.602 105.953 35.334 M84.991 35.458 L 84.417 36.083 85.042 35.509 C 85.385 35.193,85.667 34.912,85.667 34.884 C 85.667 34.757,85.526 34.877,84.991 35.458 M177.862 39.333 C 177.870 39.766,178.133 40.478,178.138 40.083 C 178.141 39.900,178.079 39.600,178.000 39.417 C 177.912 39.212,177.859 39.180,177.862 39.333 M110.750 40.167 C 111.108 40.533,111.438 40.833,111.484 40.833 C 111.530 40.833,111.275 40.533,110.917 40.167 C 110.559 39.800,110.228 39.500,110.182 39.500 C 110.137 39.500,110.392 39.800,110.750 40.167 M178.457 42.936 C 178.505 43.384,178.572 43.781,178.606 43.819 C 178.738 43.970,178.652 42.569,178.515 42.353 C 178.426 42.211,178.403 42.438,178.457 42.936 M114.000 43.395 C 114.321 43.743,114.733 44.106,114.917 44.203 C 115.100 44.299,115.212 44.344,115.167 44.301 C 114.101 43.310,113.470 42.820,114.000 43.395 M115.667 45.083 C 115.978 45.404,116.270 45.667,116.315 45.667 C 116.361 45.667,116.144 45.404,115.833 45.083 C 115.522 44.762,115.230 44.500,115.185 44.500 C 115.139 44.500,115.356 44.762,115.667 45.083 M191.673 45.656 C 191.432 46.104,191.442 56.541,191.684 57.700 C 191.879 58.635,192.523 59.489,193.367 59.931 C 194.040 60.283,204.563 60.270,205.733 59.915 C 209.154 58.878,211.075 56.328,211.069 52.833 C 211.065 50.801,211.066 50.803,209.846 48.500 C 209.231 47.339,207.261 45.945,205.712 45.575 C 203.998 45.165,191.898 45.235,191.673 45.656 M229.807 45.415 C 229.762 45.461,229.346 45.569,228.883 45.657 C 227.173 45.982,225.029 47.880,224.243 49.767 C 222.474 54.011,224.903 58.862,229.333 59.933 C 230.504 60.216,238.549 60.255,239.564 59.982 C 244.539 58.647,247.052 53.138,244.498 49.167 C 244.409 49.029,244.192 48.651,244.016 48.326 C 243.404 47.200,241.397 45.922,239.675 45.562 C 238.621 45.341,230.009 45.214,229.807 45.415 M263.083 45.533 C 261.651 45.886,258.833 47.769,258.833 48.372 C 258.833 48.474,258.729 48.675,258.601 48.820 C 256.195 51.550,257.623 57.209,261.191 59.085 C 264.229 60.681,272.614 60.709,275.530 59.132 C 281.074 56.135,280.075 47.079,274.042 45.634 C 273.027 45.391,263.996 45.307,263.083 45.533 M207.132 46.398 C 209.724 48.002,210.755 49.838,210.743 52.828 C 210.731 55.567,209.437 57.951,207.453 58.887 C 205.425 59.842,205.505 59.833,199.396 59.833 L 193.709 59.833 192.870 59.213 C 191.798 58.419,191.837 58.715,191.835 51.532 L 191.833 45.647 198.958 45.699 L 206.083 45.750 207.132 46.398 M241.102 46.292 C 241.570 46.590,242.025 46.833,242.113 46.833 C 242.467 46.833,243.887 48.475,244.274 49.333 C 244.501 49.837,244.766 50.393,244.861 50.567 C 245.746 52.184,244.860 55.958,243.182 57.720 C 242.400 58.541,242.063 58.733,240.167 59.433 C 238.648 59.995,230.712 60.049,229.069 59.509 C 227.532 59.004,226.533 58.520,226.278 58.157 C 226.150 57.974,225.751 57.507,225.391 57.120 C 223.591 55.183,223.550 50.356,225.319 48.449 C 225.648 48.094,225.976 47.700,226.048 47.572 C 226.231 47.249,228.399 45.984,229.047 45.822 C 229.342 45.749,231.983 45.702,234.917 45.719 L 240.250 45.750 241.102 46.292 M273.864 45.817 C 278.622 46.923,280.556 53.820,277.153 57.547 C 276.271 58.513,275.608 58.905,273.833 59.512 C 272.633 59.922,264.437 59.988,263.151 59.597 C 261.184 59.000,258.833 57.372,258.833 56.606 C 258.833 56.493,258.768 56.329,258.687 56.242 C 256.630 54.012,258.154 48.187,261.195 46.658 C 261.592 46.458,262.029 46.197,262.167 46.078 C 262.608 45.696,272.402 45.478,273.864 45.817 M117.000 46.385 C 117.000 46.414,117.244 46.658,117.542 46.927 L 118.083 47.417 117.594 46.875 C 117.138 46.370,117.000 46.257,117.000 46.385 M118.333 47.719 C 118.333 47.748,118.577 47.991,118.875 48.260 L 119.417 48.750 118.927 48.208 C 118.471 47.703,118.333 47.590,118.333 47.719 M291.503 48.167 C 291.512 49.358,291.857 49.407,300.833 49.500 L 308.917 49.583 310.405 50.167 C 317.009 52.755,317.624 62.203,311.397 65.427 C 308.989 66.675,310.143 66.570,298.131 66.627 C 285.135 66.689,286.667 67.140,286.667 63.246 L 286.667 60.492 287.094 60.329 C 287.355 60.230,291.403 60.167,297.451 60.167 L 307.381 60.167 308.210 59.338 C 309.245 58.303,309.234 57.647,308.166 56.625 L 307.513 56.000 299.965 55.996 C 291.929 55.991,290.730 55.890,289.167 55.087 C 288.617 54.804,288.376 54.628,286.904 53.430 C 286.167 52.830,286.006 52.995,286.003 54.354 C 285.996 56.797,284.218 60.464,282.008 62.592 C 281.441 63.137,280.889 63.613,280.781 63.649 C 280.672 63.685,280.321 63.919,280.000 64.169 C 279.366 64.661,278.119 65.333,277.838 65.333 C 277.742 65.333,277.345 65.479,276.957 65.658 C 275.087 66.517,274.464 66.583,268.333 66.582 C 262.070 66.581,262.371 66.617,259.333 65.509 C 258.554 65.224,257.729 64.846,257.500 64.667 C 257.271 64.489,256.702 64.117,256.236 63.841 C 254.865 63.031,252.961 60.821,252.163 59.116 C 251.664 58.051,251.244 58.092,250.667 59.261 C 249.570 61.484,246.193 64.698,244.417 65.209 C 244.233 65.262,243.671 65.467,243.167 65.666 C 240.969 66.530,240.607 66.569,234.667 66.576 C 228.714 66.584,227.512 66.459,225.856 65.659 C 225.025 65.257,224.706 65.229,225.000 65.583 C 225.114 65.721,225.332 65.833,225.483 65.833 C 225.635 65.833,225.907 65.934,226.088 66.058 C 227.128 66.767,238.572 67.170,241.333 66.594 C 242.114 66.431,243.686 65.818,244.013 65.550 C 244.158 65.431,244.426 65.333,244.608 65.333 C 244.941 65.333,247.367 63.765,247.472 63.483 C 247.503 63.401,247.626 63.333,247.747 63.333 C 247.867 63.333,248.203 63.052,248.493 62.708 C 248.783 62.365,249.188 61.896,249.392 61.667 C 250.063 60.914,250.612 60.090,250.725 59.667 C 251.030 58.521,251.731 58.403,252.083 59.438 C 252.531 60.753,254.245 62.771,255.816 63.833 C 256.291 64.154,256.828 64.540,257.010 64.690 C 257.193 64.840,257.584 65.056,257.879 65.170 C 258.604 65.449,259.852 65.989,260.200 66.175 C 262.084 67.178,274.506 67.126,276.750 66.105 C 278.866 65.143,279.819 64.642,280.250 64.268 C 280.525 64.029,280.811 63.834,280.885 63.834 C 281.116 63.833,282.830 62.134,283.689 61.055 C 285.086 59.300,286.333 56.086,286.333 54.242 C 286.333 53.834,286.381 53.500,286.440 53.500 C 286.594 53.500,288.167 54.716,288.167 54.836 C 288.167 54.941,289.012 55.322,290.000 55.663 C 291.806 56.286,292.318 56.321,299.683 56.327 C 307.268 56.334,307.772 56.377,308.217 57.057 C 308.769 57.898,308.733 58.426,308.075 59.154 L 307.461 59.833 297.439 59.836 C 289.698 59.838,287.322 59.886,287.000 60.049 L 286.583 60.260 286.538 63.217 C 286.509 65.067,286.558 66.298,286.669 66.504 C 286.842 66.827,287.055 66.833,297.798 66.829 C 309.869 66.825,309.854 66.826,311.265 65.750 C 311.565 65.521,311.912 65.333,312.035 65.333 C 312.357 65.333,314.184 63.401,314.805 62.403 C 317.252 58.471,315.720 52.518,311.750 50.530 C 311.383 50.346,310.746 50.021,310.333 49.806 C 309.584 49.417,309.577 49.417,301.333 49.334 C 292.476 49.244,292.638 49.260,291.876 48.359 C 291.630 48.069,291.502 48.003,291.503 48.167 M122.167 51.583 C 122.478 51.904,122.770 52.167,122.815 52.167 C 122.861 52.167,122.644 51.904,122.333 51.583 C 122.022 51.262,121.730 51.000,121.685 51.000 C 121.639 51.000,121.856 51.262,122.167 51.583 M174.500 53.750 C 174.095 54.163,173.801 54.500,173.847 54.500 C 173.893 54.500,174.262 54.163,174.667 53.750 C 175.072 53.337,175.365 53.000,175.319 53.000 C 175.274 53.000,174.905 53.337,174.500 53.750 M125.417 54.833 C 125.775 55.200,126.105 55.500,126.151 55.500 C 126.197 55.500,125.941 55.200,125.583 54.833 C 125.225 54.467,124.895 54.167,124.849 54.167 C 124.803 54.167,125.059 54.467,125.417 54.833 M63.324 57.625 L 62.750 58.250 63.375 57.676 C 63.719 57.360,64.000 57.078,64.000 57.051 C 64.000 56.923,63.859 57.043,63.324 57.625 M128.667 58.083 C 128.978 58.404,129.270 58.667,129.315 58.667 C 129.361 58.667,129.144 58.404,128.833 58.083 C 128.522 57.762,128.230 57.500,128.185 57.500 C 128.139 57.500,128.356 57.762,128.667 58.083 M62.075 59.042 L 61.417 59.750 62.125 59.091 C 62.784 58.478,62.910 58.333,62.784 58.333 C 62.757 58.333,62.438 58.652,62.075 59.042 M130.333 59.750 C 130.644 60.071,130.936 60.333,130.982 60.333 C 131.028 60.333,130.811 60.071,130.500 59.750 C 130.189 59.429,129.897 59.167,129.851 59.167 C 129.805 59.167,130.022 59.429,130.333 59.750 M60.252 61.786 L 59.960 62.250 60.346 61.880 C 60.558 61.676,60.690 61.467,60.638 61.416 C 60.587 61.365,60.413 61.532,60.252 61.786 M133.167 62.552 C 133.167 62.581,133.410 62.825,133.708 63.094 L 134.250 63.583 133.760 63.042 C 133.304 62.537,133.167 62.423,133.167 62.552 M136.833 66.250 C 137.144 66.571,137.436 66.833,137.482 66.833 C 137.528 66.833,137.311 66.571,137.000 66.250 C 136.689 65.929,136.397 65.667,136.351 65.667 C 136.305 65.667,136.522 65.929,136.833 66.250 M58.607 67.602 C 58.548 68.030,58.510 68.801,58.523 69.315 C 58.541 70.010,58.582 69.823,58.683 68.590 C 58.828 66.836,58.786 66.296,58.607 67.602 M138.660 68.042 C 139.068 68.477,139.425 68.833,139.451 68.833 C 139.577 68.833,139.444 68.684,138.708 67.993 L 137.917 67.250 138.660 68.042 M160.000 68.681 L 159.250 69.360 160.042 68.743 C 160.736 68.203,160.941 67.999,160.792 68.000 C 160.769 68.001,160.412 68.307,160.000 68.681 M260.593 73.204 C 260.137 73.854,260.212 85.829,260.678 86.952 C 261.033 87.807,262.088 88.852,262.911 89.165 C 264.530 89.780,270.774 89.315,271.750 88.506 C 271.933 88.355,272.282 88.146,272.526 88.043 C 272.769 87.939,273.107 87.660,273.276 87.422 C 273.445 87.184,273.790 86.718,274.042 86.387 C 275.803 84.081,275.411 80.369,273.172 78.153 C 271.662 76.657,270.434 76.338,266.167 76.332 C 262.829 76.327,262.903 76.362,262.965 74.815 C 263.007 73.771,262.966 73.569,262.644 73.226 C 262.134 72.683,260.967 72.670,260.593 73.204 M276.921 73.103 C 276.726 73.298,276.664 73.611,276.700 74.228 L 276.750 75.083 277.772 75.132 C 278.967 75.190,279.333 74.948,279.333 74.103 C 279.333 73.005,277.697 72.327,276.921 73.103 M281.690 73.055 C 281.453 73.341,281.411 88.977,281.646 89.213 C 281.955 89.522,283.520 89.426,283.770 89.084 C 284.174 88.532,284.103 73.478,283.695 73.109 C 283.322 72.771,281.956 72.735,281.690 73.055 M262.395 73.419 C 262.590 73.614,262.627 73.925,262.558 74.794 C 262.413 76.631,262.270 76.567,266.778 76.670 C 269.687 76.736,270.701 76.815,271.083 77.006 C 276.691 79.805,275.956 87.339,269.923 88.908 C 266.081 89.908,261.773 88.941,260.915 86.886 C 260.586 86.099,260.541 73.692,260.867 73.367 C 261.148 73.085,262.094 73.118,262.395 73.419 M278.800 73.367 C 279.490 74.057,278.844 75.038,277.744 74.969 L 276.917 74.917 276.864 74.280 C 276.782 73.285,278.097 72.664,278.800 73.367 M283.467 73.367 C 283.860 73.760,283.742 88.781,283.344 88.994 C 282.909 89.227,282.112 89.212,281.867 88.967 C 281.649 88.749,281.563 73.493,281.778 73.278 C 281.968 73.088,283.256 73.156,283.467 73.367 M226.000 76.119 C 225.398 76.224,224.222 76.629,223.627 76.937 C 223.136 77.191,223.100 77.187,222.838 76.840 C 222.464 76.343,221.322 76.193,220.754 76.566 L 220.333 76.841 220.333 82.717 C 220.333 89.564,220.284 89.333,221.754 89.333 C 223.001 89.333,222.999 89.341,223.007 84.969 C 223.015 80.760,223.041 80.654,224.304 79.605 C 225.599 78.529,226.977 78.429,228.533 79.298 C 229.936 80.082,230.075 80.566,230.126 84.833 C 230.178 89.132,230.173 89.107,230.897 89.307 C 232.691 89.802,232.833 89.487,232.833 85.029 C 232.833 81.449,232.849 81.264,233.206 80.686 C 234.870 77.994,238.328 78.073,239.706 80.836 C 240.159 81.746,240.161 81.767,240.152 85.197 C 240.141 89.416,240.251 89.689,241.833 89.358 L 242.417 89.236 242.461 84.835 C 242.503 80.725,242.484 80.387,242.171 79.723 C 241.069 77.377,237.517 75.531,235.474 76.243 C 235.076 76.382,234.652 76.496,234.533 76.498 C 234.069 76.503,232.880 77.168,232.487 77.643 C 231.862 78.397,231.326 78.464,230.869 77.846 C 230.171 76.902,227.317 75.890,226.000 76.119 M227.917 76.560 C 228.985 76.790,229.992 77.345,230.830 78.163 C 231.395 78.716,232.091 78.578,232.637 77.805 C 232.972 77.331,234.292 76.735,235.500 76.514 C 238.219 76.016,240.976 77.575,242.089 80.238 C 242.510 81.245,242.442 88.763,242.011 88.994 C 240.701 89.695,240.500 89.189,240.500 85.191 C 240.500 81.472,240.357 80.826,239.281 79.688 C 237.681 77.995,235.530 77.955,233.788 79.586 C 232.698 80.607,232.684 80.671,232.651 84.849 C 232.619 88.945,232.560 89.167,231.512 89.167 C 230.540 89.167,230.500 89.004,230.500 85.066 C 230.500 81.056,230.427 80.705,229.374 79.624 C 227.813 78.023,225.792 77.989,223.999 79.534 C 222.872 80.504,222.833 80.683,222.833 84.932 C 222.833 88.583,222.827 88.652,222.463 88.907 C 221.982 89.244,221.354 89.237,220.971 88.891 C 220.590 88.546,220.492 77.242,220.867 76.867 C 221.255 76.479,222.489 76.617,222.661 77.067 C 222.842 77.545,223.103 77.738,223.249 77.502 C 223.757 76.680,226.191 76.189,227.917 76.560 M248.443 76.508 C 247.028 76.746,246.532 77.047,244.837 78.706 C 242.471 81.021,243.293 86.573,246.243 88.206 C 246.452 88.322,246.952 88.604,247.353 88.833 C 248.065 89.240,248.167 89.250,251.417 89.250 L 254.750 89.250 255.917 88.597 C 259.312 86.698,260.284 83.407,258.608 79.488 C 257.543 76.996,253.171 75.715,248.443 76.508 M277.042 76.496 L 276.667 76.656 276.667 82.672 C 276.667 86.501,276.729 88.806,276.839 89.011 C 277.106 89.509,278.715 89.475,279.074 88.963 C 279.436 88.446,279.468 76.986,279.108 76.687 C 278.793 76.425,277.491 76.305,277.042 76.496 M290.484 76.491 C 289.168 76.733,286.500 78.614,286.500 79.299 C 286.500 79.441,286.398 79.675,286.273 79.820 C 284.320 82.082,285.830 86.763,289.107 88.607 L 290.250 89.250 293.124 89.305 C 296.104 89.363,297.306 89.177,298.030 88.547 C 298.184 88.412,298.558 88.178,298.861 88.026 C 299.164 87.874,299.497 87.576,299.602 87.364 C 299.706 87.152,299.988 86.773,300.229 86.522 C 301.105 85.608,300.559 84.966,299.038 85.123 C 298.273 85.202,298.031 85.310,297.658 85.735 C 296.236 87.354,290.762 87.179,289.125 85.462 C 287.823 84.096,287.536 84.167,294.405 84.167 C 301.616 84.167,301.073 84.332,300.969 82.166 C 300.898 80.690,300.855 80.575,299.667 78.734 C 298.461 76.866,294.157 75.814,290.484 76.491 M302.282 76.680 C 302.057 76.815,302.027 76.915,302.163 77.079 C 302.262 77.199,302.439 77.623,302.554 78.023 C 302.832 78.983,303.232 79.059,303.593 78.219 C 303.879 77.555,303.931 77.580,304.223 78.521 C 304.425 79.173,306.599 79.022,306.956 78.331 C 307.516 77.246,306.804 76.136,305.996 76.836 C 305.663 77.125,305.599 77.130,305.242 76.896 C 304.761 76.581,302.698 76.430,302.282 76.680 M255.419 77.019 C 258.327 78.560,259.530 80.890,259.012 83.974 C 258.802 85.223,258.300 86.500,258.018 86.500 C 257.940 86.500,257.698 86.761,257.480 87.079 C 255.421 90.089,247.793 89.888,245.118 86.755 C 242.373 83.539,243.992 77.773,247.917 76.789 C 249.065 76.501,254.772 76.676,255.419 77.019 M278.852 77.167 C 279.114 78.115,279.015 88.404,278.741 88.796 C 278.426 89.246,277.585 89.295,277.138 88.891 C 276.822 88.605,276.645 77.077,276.952 76.770 C 277.279 76.443,278.736 76.747,278.852 77.167 M297.083 77.058 C 297.542 77.272,298.024 77.576,298.155 77.734 C 298.285 77.893,298.605 78.132,298.864 78.266 C 299.644 78.669,300.656 80.820,300.785 82.351 C 300.909 83.828,301.300 83.738,294.333 83.833 L 288.250 83.917 288.198 84.363 C 287.894 87.002,295.345 88.114,297.957 85.820 C 299.211 84.719,300.702 85.427,299.802 86.695 C 297.553 89.865,290.405 90.073,287.462 87.055 C 284.552 84.069,285.669 78.767,289.583 76.979 C 290.695 76.471,295.943 76.527,297.083 77.058 M303.330 77.172 C 303.240 77.341,303.159 77.689,303.150 77.947 L 303.133 78.417 303.010 77.902 C 302.942 77.619,302.827 77.292,302.755 77.175 C 302.600 76.925,302.951 76.658,303.274 76.782 C 303.433 76.843,303.448 76.952,303.330 77.172 M305.068 77.250 C 305.218 77.479,305.453 77.667,305.591 77.667 C 305.728 77.667,305.926 77.479,306.030 77.250 C 306.439 76.352,306.937 77.269,306.566 78.236 C 306.376 78.731,304.696 78.598,304.496 78.072 C 304.090 77.005,304.511 76.399,305.068 77.250 M248.832 78.656 C 248.083 78.884,247.426 79.294,246.905 79.861 C 245.876 80.979,245.750 81.304,245.752 82.833 L 245.754 84.250 246.493 85.225 C 247.863 87.033,252.114 87.747,254.688 86.601 C 258.101 85.083,257.978 80.426,254.483 78.840 C 253.711 78.489,249.798 78.362,248.832 78.656 M262.741 78.907 C 262.514 79.253,262.483 79.812,262.529 82.671 L 262.583 86.028 263.128 86.514 L 263.672 87.000 266.614 87.000 L 269.557 87.000 270.625 86.480 C 271.212 86.194,271.739 85.837,271.795 85.688 C 271.851 85.539,272.108 85.083,272.365 84.676 C 273.703 82.557,272.167 79.262,269.560 78.657 C 267.960 78.286,263.030 78.466,262.741 78.907 M290.939 78.675 C 289.745 78.973,288.169 80.414,288.167 81.208 L 288.167 81.667 293.125 81.664 C 295.852 81.663,298.187 81.596,298.314 81.515 C 298.712 81.263,297.881 80.040,296.789 79.272 L 295.827 78.595 293.705 78.555 C 292.538 78.533,291.293 78.587,290.939 78.675 M254.653 79.243 C 257.969 80.923,257.536 85.701,253.989 86.566 C 247.869 88.060,243.583 84.005,247.069 80.020 C 248.166 78.766,252.779 78.293,254.653 79.243 M270.729 79.500 C 272.763 80.730,273.147 83.687,271.512 85.528 C 270.648 86.501,269.982 86.692,267.123 86.788 C 262.801 86.932,262.922 87.052,262.903 82.590 C 262.886 78.407,262.506 78.803,266.477 78.865 L 269.764 78.917 270.729 79.500 M296.863 79.587 C 297.383 79.952,297.851 80.412,297.904 80.610 C 297.956 80.807,298.044 81.089,298.100 81.235 C 298.192 81.474,297.713 81.500,293.268 81.500 C 287.680 81.500,287.723 81.512,288.945 80.255 C 290.115 79.050,290.910 78.813,293.583 78.873 L 295.917 78.925 296.863 79.587 M63.500 80.417 C 63.811 80.737,64.103 81.000,64.149 81.000 C 64.195 81.000,63.978 80.737,63.667 80.417 C 63.356 80.096,63.064 79.833,63.018 79.833 C 62.972 79.833,63.189 80.096,63.500 80.417 M139.833 81.000 C 139.833 81.091,139.571 81.456,139.250 81.811 C 138.929 82.167,138.667 82.509,138.667 82.572 C 138.667 82.635,138.967 82.340,139.333 81.917 C 139.936 81.221,140.144 80.833,139.917 80.833 C 139.871 80.833,139.833 80.908,139.833 81.000 M144.184 84.431 C 143.872 84.652,143.699 84.833,143.799 84.833 C 143.900 84.833,144.192 84.648,144.449 84.422 C 145.038 83.904,144.920 83.908,144.184 84.431 M98.083 90.000 C 98.267 90.079,98.529 90.143,98.667 90.143 C 98.824 90.143,98.793 90.090,98.583 90.000 C 98.400 89.921,98.138 89.857,98.000 89.857 C 97.842 89.857,97.873 89.910,98.083 90.000 M116.583 94.000 C 116.767 94.079,117.029 94.143,117.167 94.143 C 117.324 94.143,117.293 94.090,117.083 94.000 C 116.900 93.921,116.638 93.857,116.500 93.857 C 116.342 93.857,116.373 93.910,116.583 94.000 M120.583 94.833 C 120.767 94.912,121.067 94.974,121.250 94.972 C 121.518 94.968,121.502 94.941,121.167 94.833 C 120.597 94.651,120.159 94.651,120.583 94.833 M146.167 100.309 C 146.856 100.534,147.777 100.677,147.500 100.516 C 147.362 100.436,146.912 100.326,146.500 100.272 C 146.008 100.208,145.893 100.220,146.167 100.309 M155.491 101.447 C 155.754 101.993,155.709 102.137,155.248 102.218 C 154.863 102.285,154.866 102.289,155.288 102.270 C 155.831 102.246,155.954 101.883,155.579 101.413 C 155.321 101.091,155.319 101.092,155.491 101.447 " stroke="none" fill="#9b9795" fill-rule="evenodd"></path><path id="path4" d="M185.033 31.367 C 184.770 31.630,184.751 58.733,185.013 59.750 C 185.108 60.117,185.251 60.672,185.331 60.984 C 185.516 61.705,186.873 63.701,187.560 64.262 C 187.848 64.497,188.204 64.787,188.351 64.906 C 188.823 65.287,191.057 66.309,191.843 66.503 C 192.367 66.632,194.743 66.669,199.510 66.623 C 206.853 66.552,206.714 66.566,209.000 65.667 C 209.504 65.469,210.072 65.256,210.262 65.195 C 212.166 64.581,215.487 61.319,216.485 59.083 C 217.051 57.816,217.094 57.753,217.434 57.704 C 217.685 57.667,217.835 57.884,218.160 58.751 C 218.385 59.352,218.711 59.973,218.885 60.130 C 219.059 60.287,219.316 60.639,219.458 60.912 C 219.761 61.499,221.515 63.274,222.262 63.750 C 222.549 63.933,223.135 64.319,223.564 64.607 C 223.993 64.896,224.735 65.259,225.213 65.415 C 225.692 65.571,226.158 65.758,226.250 65.831 C 226.949 66.387,229.122 66.583,234.583 66.583 C 240.114 66.583,240.952 66.513,242.500 65.921 C 242.821 65.799,243.329 65.606,243.630 65.493 C 243.931 65.381,244.142 65.254,244.100 65.211 C 244.023 65.134,241.887 65.698,240.917 66.051 C 239.714 66.488,229.919 66.400,227.997 65.934 C 225.161 65.247,224.807 65.116,223.565 64.289 C 222.913 63.855,222.322 63.500,222.252 63.500 C 221.601 63.500,218.438 59.285,218.023 57.865 C 217.684 56.701,217.057 56.899,216.546 58.331 C 216.333 58.925,215.953 59.675,215.700 59.997 C 215.447 60.320,215.103 60.800,214.935 61.064 C 214.602 61.588,212.703 63.500,212.515 63.500 C 212.451 63.500,211.924 63.834,211.344 64.243 C 208.848 66.000,206.848 66.331,198.750 66.329 L 192.083 66.328 190.667 65.750 C 189.887 65.432,189.193 65.171,189.123 65.169 C 189.007 65.167,187.928 64.228,187.097 63.406 C 186.906 63.217,186.600 62.807,186.417 62.495 C 186.233 62.183,185.962 61.734,185.813 61.497 C 185.056 60.287,185.000 59.174,185.000 45.205 C 185.000 37.957,185.046 31.909,185.101 31.764 C 185.272 31.319,190.921 31.374,191.161 31.822 C 191.263 32.014,191.333 33.492,191.333 35.456 C 191.333 37.809,191.391 38.825,191.533 38.967 C 191.682 39.116,193.536 39.168,198.825 39.171 C 205.320 39.174,206.015 39.202,207.083 39.497 C 208.683 39.940,211.152 40.971,211.571 41.372 C 211.761 41.554,212.193 41.880,212.530 42.096 C 213.260 42.565,214.610 43.968,215.101 44.771 C 215.294 45.086,215.605 45.511,215.791 45.714 C 215.977 45.917,216.297 46.590,216.504 47.208 C 216.972 48.615,217.641 48.837,218.014 47.708 C 218.339 46.722,219.850 44.317,220.532 43.701 C 220.873 43.393,221.196 43.004,221.249 42.837 C 221.302 42.670,221.521 42.489,221.737 42.435 C 221.952 42.381,222.364 42.116,222.653 41.846 C 223.133 41.398,225.065 40.341,225.430 40.328 C 225.514 40.325,225.883 40.177,226.250 40.000 C 226.617 39.823,227.053 39.675,227.219 39.672 C 227.386 39.669,227.686 39.573,227.886 39.458 C 228.149 39.308,229.876 39.223,234.083 39.154 L 239.917 39.058 233.917 39.085 C 227.306 39.116,227.330 39.113,224.966 40.228 C 224.260 40.561,223.638 40.833,223.585 40.833 C 222.567 40.833,218.492 45.462,217.966 47.217 C 217.667 48.213,217.059 48.042,216.599 46.833 C 215.436 43.775,212.086 40.846,208.188 39.480 C 207.111 39.102,206.891 39.090,199.505 39.005 L 191.926 38.917 191.716 38.500 C 191.567 38.207,191.504 37.115,191.502 34.825 C 191.499 30.807,191.828 31.167,188.167 31.167 C 186.107 31.167,185.174 31.226,185.033 31.367 M319.385 31.375 C 319.311 31.490,319.212 33.233,319.167 35.250 L 319.083 38.917 305.250 39.002 L 291.417 39.087 305.333 39.085 L 319.250 39.083 319.295 35.513 C 319.351 31.090,319.005 31.500,322.675 31.500 L 325.643 31.500 325.697 35.153 C 325.726 37.162,325.812 38.869,325.889 38.945 C 325.965 39.021,328.365 39.121,331.222 39.167 L 336.417 39.250 336.462 42.045 C 336.500 44.315,336.464 44.857,336.275 44.930 C 336.147 44.979,333.814 45.034,331.091 45.051 C 326.352 45.082,326.129 45.098,325.895 45.417 C 325.688 45.699,325.658 46.710,325.700 52.000 C 325.756 59.044,325.725 58.867,327.128 59.941 L 327.750 60.417 332.125 60.475 L 336.500 60.532 336.500 63.233 C 336.500 65.111,336.439 65.994,336.300 66.133 C 336.154 66.279,334.855 66.333,331.496 66.333 C 326.560 66.333,326.382 66.308,323.978 65.273 C 322.662 64.706,320.857 62.653,320.221 61.000 C 319.320 58.659,319.333 58.792,319.333 51.864 C 319.333 46.457,319.294 45.341,319.096 45.177 C 318.918 45.029,315.675 44.993,305.888 45.032 L 292.917 45.083 292.167 45.588 C 291.583 45.981,291.410 46.203,291.387 46.588 C 291.369 46.889,291.391 46.953,291.445 46.750 C 291.826 45.310,291.759 45.316,306.333 45.370 L 319.083 45.417 319.172 52.417 C 319.270 60.099,319.301 60.344,320.394 61.996 C 320.636 62.361,320.833 62.719,320.833 62.792 C 320.833 63.409,323.536 65.429,325.410 66.212 C 326.757 66.775,336.098 66.871,336.539 66.326 C 336.913 65.865,336.989 60.620,336.625 60.385 C 336.510 60.311,334.449 60.212,332.043 60.167 L 327.670 60.083 326.877 59.290 L 326.083 58.496 326.036 52.147 C 326.001 47.523,326.041 45.735,326.181 45.566 C 326.338 45.377,327.288 45.333,331.281 45.333 C 334.345 45.333,336.310 45.269,336.511 45.161 C 336.959 44.921,337.014 39.272,336.570 39.101 C 336.425 39.046,334.105 39.000,331.415 39.000 C 325.358 39.000,326.000 39.457,326.000 35.144 C 326.000 33.165,325.930 31.680,325.827 31.489 C 325.613 31.087,319.639 30.982,319.385 31.375 M265.531 39.125 C 267.061 39.152,269.611 39.152,271.198 39.125 C 272.785 39.097,271.533 39.075,268.417 39.075 C 265.300 39.075,264.001 39.097,265.531 39.125 M241.250 39.496 C 244.669 40.383,247.832 42.406,249.333 44.667 C 249.546 44.987,249.886 45.438,250.089 45.667 C 250.291 45.896,250.510 46.308,250.575 46.583 C 250.893 47.935,252.333 47.860,252.333 46.491 C 252.333 46.378,252.580 45.977,252.881 45.600 C 253.182 45.224,253.547 44.729,253.692 44.500 C 254.071 43.902,255.484 42.520,256.167 42.079 C 256.487 41.872,256.900 41.561,257.083 41.388 C 257.267 41.216,258.054 40.825,258.833 40.520 C 259.612 40.215,260.325 39.907,260.417 39.837 C 260.508 39.766,260.808 39.667,261.083 39.616 C 261.358 39.565,261.846 39.450,262.167 39.362 L 262.750 39.201 262.226 39.184 C 261.555 39.162,259.613 39.758,258.750 40.251 C 258.383 40.461,257.896 40.687,257.667 40.755 C 256.276 41.165,253.368 44.105,252.286 46.195 C 251.574 47.570,251.276 47.622,250.762 46.460 C 249.240 43.019,243.735 39.091,240.559 39.180 C 240.258 39.188,240.512 39.305,241.250 39.496 M274.417 39.283 C 276.269 39.718,279.261 41.007,280.196 41.774 C 280.683 42.173,281.157 42.504,281.249 42.509 C 281.341 42.515,281.699 42.890,282.044 43.343 C 282.389 43.796,282.764 44.167,282.878 44.167 C 282.991 44.168,283.225 44.511,283.397 44.931 C 283.837 46.001,285.000 46.423,285.000 45.513 C 285.000 43.534,287.810 40.539,290.667 39.472 C 291.253 39.253,291.326 39.190,291.000 39.180 C 289.037 39.119,285.310 42.673,284.921 44.975 C 284.762 45.915,284.313 45.908,283.705 44.955 C 282.824 43.575,280.255 41.214,279.202 40.816 C 278.953 40.722,278.297 40.422,277.742 40.150 C 276.628 39.602,275.142 39.161,274.500 39.188 C 274.160 39.202,274.145 39.220,274.417 39.283 M192.334 45.117 C 191.291 45.254,191.333 44.976,191.335 51.729 L 191.336 57.917 191.837 58.789 C 192.751 60.384,192.856 60.408,199.020 60.467 C 204.621 60.520,205.714 60.414,207.129 59.681 C 208.176 59.138,209.833 57.751,209.833 57.418 C 209.833 57.302,209.952 57.109,210.096 56.989 C 211.578 55.760,211.789 50.669,210.427 49.040 C 210.217 48.789,209.996 48.424,209.935 48.229 C 209.693 47.454,207.637 45.942,206.083 45.396 C 205.268 45.110,194.117 44.884,192.334 45.117 M230.333 45.104 C 221.949 46.082,220.844 57.797,228.917 60.118 C 230.895 60.686,238.825 60.570,240.636 59.946 C 244.369 58.660,246.545 54.408,245.427 50.583 C 245.109 49.495,243.891 47.521,243.292 47.122 C 243.085 46.984,242.732 46.709,242.505 46.510 C 242.033 46.094,241.464 45.825,240.167 45.405 C 239.277 45.116,232.108 44.897,230.333 45.104 M263.833 45.153 C 260.897 45.654,258.558 47.569,257.554 50.296 C 255.880 54.845,259.144 59.724,264.286 60.358 C 266.498 60.631,272.826 60.459,274.050 60.094 C 275.103 59.779,276.995 58.597,277.526 57.922 C 277.709 57.689,277.950 57.405,278.061 57.291 C 278.998 56.329,279.417 54.951,279.417 52.833 L 279.417 50.750 278.667 49.274 C 278.209 48.373,277.722 47.661,277.417 47.445 C 277.142 47.251,276.792 46.937,276.639 46.746 C 276.309 46.334,275.256 45.801,274.023 45.422 C 273.027 45.116,265.255 44.911,263.833 45.153 M205.712 45.575 C 207.261 45.945,209.231 47.339,209.846 48.500 C 211.066 50.803,211.065 50.801,211.069 52.833 C 211.075 56.328,209.154 58.878,205.733 59.915 C 204.563 60.270,194.040 60.283,193.367 59.931 C 192.523 59.489,191.879 58.635,191.684 57.700 C 191.442 56.541,191.432 46.104,191.673 45.656 C 191.898 45.235,203.998 45.165,205.712 45.575 M239.675 45.562 C 241.397 45.922,243.404 47.200,244.016 48.326 C 244.192 48.651,244.409 49.029,244.498 49.167 C 247.052 53.138,244.539 58.647,239.564 59.982 C 238.549 60.255,230.504 60.216,229.333 59.933 C 224.903 58.862,222.474 54.011,224.243 49.767 C 225.029 47.880,227.173 45.982,228.883 45.657 C 229.346 45.569,229.762 45.461,229.807 45.415 C 230.009 45.214,238.621 45.341,239.675 45.562 M274.042 45.634 C 278.977 46.816,280.955 53.962,277.382 57.706 C 275.399 59.784,273.995 60.167,268.367 60.165 C 261.894 60.162,259.943 59.362,258.260 56.020 C 257.087 53.691,257.245 50.358,258.601 48.820 C 258.729 48.675,258.833 48.474,258.833 48.372 C 258.833 47.769,261.651 45.886,263.083 45.533 C 263.996 45.307,273.027 45.391,274.042 45.634 M291.348 48.191 C 291.338 48.499,291.512 48.789,291.922 49.149 C 292.246 49.434,292.528 49.681,292.547 49.699 C 292.567 49.716,296.296 49.777,300.833 49.833 C 310.842 49.958,310.580 49.905,313.221 52.333 C 313.970 53.022,314.297 53.564,315.082 55.417 C 316.753 59.363,314.118 64.382,309.583 65.890 L 308.249 66.333 297.900 66.333 C 285.537 66.333,286.972 66.754,287.037 63.149 L 287.083 60.583 297.276 60.500 L 307.469 60.417 308.110 59.900 C 309.444 58.825,309.548 57.718,308.428 56.532 L 307.689 55.750 299.386 55.647 C 294.820 55.590,290.860 55.484,290.587 55.412 C 289.705 55.178,287.988 54.075,286.866 53.022 L 286.268 52.461 285.979 52.818 C 285.788 53.053,285.690 53.470,285.688 54.045 C 285.687 54.852,285.504 55.761,284.963 57.667 C 284.635 58.821,283.229 61.062,282.223 62.034 C 281.871 62.374,281.397 62.842,281.170 63.076 C 280.943 63.309,280.696 63.500,280.622 63.500 C 280.547 63.500,280.283 63.643,280.035 63.819 C 278.926 64.601,278.028 65.091,277.333 65.292 C 273.928 66.278,274.415 66.220,268.917 66.291 C 263.476 66.361,263.013 66.322,260.343 65.567 C 258.835 65.141,258.436 64.958,257.055 64.060 C 256.581 63.752,256.127 63.500,256.045 63.500 C 255.963 63.500,255.742 63.291,255.553 63.037 C 255.365 62.782,254.939 62.388,254.607 62.162 C 254.274 61.935,254.002 61.688,254.001 61.613 C 254.001 61.538,253.674 61.013,253.276 60.447 C 252.878 59.880,252.384 59.060,252.178 58.625 C 251.641 57.489,251.015 57.633,250.585 58.994 C 250.166 60.317,247.664 62.970,245.678 64.196 C 244.905 64.673,244.358 65.091,244.461 65.126 C 245.383 65.433,249.578 61.468,250.667 59.261 C 251.244 58.092,251.664 58.051,252.163 59.116 C 252.961 60.821,254.865 63.031,256.236 63.841 C 256.702 64.117,257.271 64.489,257.500 64.667 C 257.729 64.846,258.554 65.224,259.333 65.509 C 262.371 66.617,262.070 66.581,268.333 66.582 C 274.464 66.583,275.087 66.517,276.957 65.658 C 277.345 65.479,277.742 65.333,277.838 65.333 C 278.119 65.333,279.366 64.661,280.000 64.169 C 280.321 63.919,280.672 63.685,280.781 63.649 C 281.118 63.536,283.016 61.633,283.477 60.944 C 284.573 59.309,284.896 58.660,285.430 57.031 C 285.801 55.897,286.001 54.965,286.003 54.354 C 286.006 52.995,286.167 52.830,286.904 53.430 C 288.376 54.628,288.617 54.804,289.167 55.087 C 290.730 55.890,291.929 55.991,299.965 55.996 L 307.513 56.000 308.166 56.625 C 309.234 57.647,309.245 58.303,308.210 59.338 L 307.381 60.167 297.451 60.167 C 291.403 60.167,287.355 60.230,287.094 60.329 L 286.667 60.492 286.667 63.246 C 286.667 67.140,285.135 66.689,298.131 66.627 C 310.143 66.570,308.989 66.675,311.397 65.427 C 317.624 62.203,317.009 52.755,310.405 50.167 L 308.917 49.583 300.833 49.500 C 291.829 49.407,291.855 49.411,291.511 48.250 C 291.364 47.753,291.363 47.752,291.348 48.191 M260.867 73.367 C 260.541 73.692,260.586 86.099,260.915 86.886 C 261.773 88.941,266.081 89.908,269.923 88.908 C 275.956 87.339,276.691 79.805,271.083 77.006 C 270.701 76.815,269.687 76.736,266.778 76.670 C 262.270 76.567,262.413 76.631,262.558 74.794 C 262.673 73.343,261.706 72.528,260.867 73.367 M277.010 73.405 C 276.901 73.536,276.835 73.930,276.864 74.280 L 276.917 74.917 277.744 74.969 C 278.844 75.038,279.490 74.057,278.800 73.367 C 278.520 73.087,277.251 73.114,277.010 73.405 M281.778 73.278 C 281.563 73.493,281.649 88.749,281.867 88.967 C 282.112 89.212,282.909 89.227,283.344 88.994 C 283.742 88.781,283.860 73.760,283.467 73.367 C 283.256 73.156,281.968 73.088,281.778 73.278 M262.180 73.500 C 262.264 73.500,262.333 74.172,262.333 74.994 C 262.333 76.925,262.123 76.833,266.541 76.833 C 270.528 76.833,270.690 76.870,272.426 78.166 C 275.973 80.814,274.955 87.011,270.750 88.372 C 269.710 88.709,269.250 88.750,266.500 88.750 C 262.813 88.750,262.173 88.557,261.425 87.218 L 261.000 86.458 261.000 79.991 C 261.000 73.047,260.981 73.201,261.805 73.436 C 261.927 73.471,262.096 73.500,262.180 73.500 M278.300 73.441 C 278.919 73.606,278.766 74.729,278.115 74.804 C 277.510 74.873,277.167 74.579,277.167 73.992 C 277.167 73.569,277.270 73.470,277.833 73.355 C 277.879 73.346,278.089 73.384,278.300 73.441 M283.321 73.568 C 283.562 73.859,283.552 88.087,283.310 88.542 C 283.136 88.869,282.640 88.920,282.156 88.661 C 281.844 88.494,281.833 88.233,281.833 81.006 L 281.833 73.523 282.208 73.451 C 282.924 73.313,283.127 73.335,283.321 73.568 M225.250 76.568 C 224.354 76.789,223.420 77.225,223.249 77.502 C 223.103 77.738,222.842 77.545,222.661 77.067 C 222.489 76.617,221.255 76.479,220.867 76.867 C 220.492 77.242,220.590 88.546,220.971 88.891 C 221.354 89.237,221.982 89.244,222.463 88.907 C 222.827 88.652,222.833 88.583,222.833 84.932 C 222.833 80.683,222.872 80.504,223.999 79.534 C 225.792 77.989,227.813 78.023,229.374 79.624 C 230.427 80.705,230.500 81.056,230.500 85.066 C 230.500 89.004,230.540 89.167,231.512 89.167 C 232.560 89.167,232.619 88.945,232.651 84.849 C 232.684 80.671,232.698 80.607,233.788 79.586 C 235.530 77.955,237.681 77.995,239.281 79.688 C 240.357 80.826,240.500 81.472,240.500 85.191 C 240.500 89.189,240.701 89.695,242.011 88.994 C 242.442 88.763,242.510 81.245,242.089 80.238 C 240.976 77.575,238.219 76.016,235.500 76.514 C 234.292 76.735,232.972 77.331,232.637 77.805 C 232.091 78.578,231.395 78.716,230.830 78.163 C 229.288 76.656,227.250 76.073,225.250 76.568 M228.833 77.019 C 229.485 77.394,230.905 78.517,231.054 78.776 C 231.237 79.094,231.781 78.920,232.417 78.341 C 233.931 76.961,234.433 76.762,236.417 76.756 C 238.378 76.750,238.225 76.702,239.961 77.866 C 241.677 79.016,242.123 80.527,242.080 85.037 C 242.047 88.455,241.972 88.833,241.323 88.833 C 240.826 88.833,240.793 88.605,240.823 85.317 C 240.869 80.042,239.377 77.871,235.951 78.229 C 233.120 78.525,232.333 80.054,232.333 85.257 C 232.333 88.366,232.320 88.495,231.984 88.675 C 231.635 88.862,230.836 88.767,230.831 88.538 C 230.829 88.471,230.810 86.767,230.789 84.750 C 230.745 80.659,230.764 80.736,229.514 79.484 C 227.818 77.784,225.596 77.715,223.838 79.308 C 222.635 80.398,222.494 81.022,222.512 85.159 C 222.528 88.623,222.478 88.833,221.647 88.833 C 220.931 88.833,220.914 88.686,220.963 82.613 L 221.008 76.833 221.593 76.833 C 222.004 76.833,222.204 76.920,222.267 77.125 C 222.575 78.121,222.881 78.181,223.857 77.437 C 224.271 77.120,224.829 76.824,225.097 76.778 C 225.997 76.626,228.421 76.782,228.833 77.019 M247.917 76.789 C 243.992 77.773,242.373 83.539,245.118 86.755 C 247.793 89.888,255.421 90.089,257.480 87.079 C 257.698 86.761,257.940 86.500,258.018 86.500 C 258.300 86.500,258.802 85.223,259.012 83.974 C 259.530 80.890,258.327 78.560,255.419 77.019 C 254.772 76.676,249.065 76.501,247.917 76.789 M276.952 76.770 C 276.645 77.077,276.822 88.605,277.138 88.891 C 277.585 89.295,278.426 89.246,278.741 88.796 C 279.015 88.404,279.114 78.115,278.852 77.167 C 278.736 76.747,277.279 76.443,276.952 76.770 M289.583 76.979 C 285.669 78.767,284.552 84.069,287.462 87.055 C 290.405 90.073,297.553 89.865,299.802 86.695 C 300.702 85.427,299.211 84.719,297.957 85.820 C 295.345 88.114,287.894 87.002,288.198 84.363 L 288.250 83.917 294.333 83.833 C 297.679 83.787,300.520 83.683,300.647 83.601 C 301.421 83.103,300.001 78.854,298.864 78.266 C 298.605 78.132,298.285 77.893,298.155 77.734 C 297.270 76.665,291.402 76.147,289.583 76.979 M302.839 76.830 C 302.715 76.907,302.679 77.052,302.755 77.175 C 302.827 77.292,302.942 77.619,303.010 77.902 L 303.133 78.417 303.150 77.947 C 303.159 77.689,303.240 77.341,303.330 77.172 C 303.517 76.823,303.203 76.605,302.839 76.830 M255.861 77.577 C 259.611 79.772,260.014 84.558,256.703 87.558 C 254.474 89.578,247.571 89.198,245.622 86.948 C 243.872 84.929,243.392 81.717,244.583 80.009 C 244.858 79.615,245.223 79.073,245.394 78.806 C 245.565 78.539,245.977 78.174,246.311 77.995 C 246.644 77.815,247.217 77.486,247.583 77.262 C 248.226 76.871,248.364 76.856,251.420 76.845 L 254.590 76.833 255.861 77.577 M278.627 82.788 L 278.671 88.659 278.251 88.765 C 277.997 88.828,277.683 88.773,277.457 88.625 L 277.083 88.380 277.129 82.598 L 277.175 76.815 277.879 76.866 L 278.583 76.917 278.627 82.788 M297.157 77.411 C 297.720 77.729,298.295 78.104,298.435 78.245 C 298.576 78.385,298.743 78.500,298.806 78.500 C 299.220 78.500,300.240 80.773,300.584 82.465 C 300.800 83.522,300.934 83.500,294.250 83.500 C 287.419 83.500,287.657 83.455,288.025 84.684 C 288.898 87.600,295.187 88.476,298.036 86.078 C 298.606 85.599,299.779 85.498,299.938 85.913 C 300.135 86.426,298.451 87.896,297.213 88.294 C 293.787 89.395,289.543 88.790,287.741 86.944 C 284.996 84.132,285.724 79.551,289.250 77.454 L 290.250 76.860 293.192 76.846 L 296.135 76.833 297.157 77.411 M304.333 77.239 C 304.333 78.238,304.589 78.500,305.561 78.500 C 306.557 78.500,306.667 78.391,306.667 77.403 C 306.667 76.721,306.310 76.635,306.030 77.250 C 305.926 77.479,305.728 77.667,305.591 77.667 C 305.453 77.667,305.218 77.479,305.068 77.250 C 304.718 76.716,304.333 76.710,304.333 77.239 M304.988 77.958 C 304.995 78.073,304.925 78.167,304.833 78.167 C 304.742 78.167,304.672 77.923,304.678 77.625 C 304.690 77.092,304.956 77.377,304.988 77.958 M248.224 78.634 C 246.947 79.155,245.647 80.623,245.687 81.500 C 245.702 81.837,245.721 81.854,245.788 81.590 C 246.303 79.562,247.967 78.611,251.142 78.529 C 255.347 78.421,257.357 79.972,257.129 83.149 C 256.934 85.882,255.275 87.000,251.417 87.000 C 248.099 87.000,246.160 85.962,245.788 83.986 C 245.715 83.600,245.711 83.602,245.689 84.033 C 245.667 84.481,246.353 85.666,246.944 86.198 C 248.812 87.880,253.936 87.836,255.941 86.120 C 258.375 84.037,257.538 79.655,254.501 78.584 C 253.452 78.214,249.170 78.248,248.224 78.634 M262.434 78.597 C 262.379 78.742,262.333 80.476,262.333 82.450 L 262.333 86.039 262.991 86.696 L 263.648 87.354 266.782 87.302 L 269.917 87.250 270.833 86.693 C 274.050 84.738,273.848 80.123,270.482 78.675 C 269.405 78.212,262.608 78.146,262.434 78.597 M290.391 78.554 C 288.927 79.099,287.280 81.381,288.016 81.847 C 288.555 82.188,298.255 82.029,298.577 81.673 C 299.092 81.104,297.914 79.472,296.419 78.684 C 295.645 78.275,291.386 78.184,290.391 78.554 M269.560 78.657 C 272.167 79.262,273.703 82.557,272.365 84.676 C 272.108 85.083,271.851 85.539,271.795 85.688 C 271.739 85.837,271.212 86.194,270.625 86.480 L 269.557 87.000 266.614 87.000 L 263.672 87.000 263.128 86.514 L 262.583 86.028 262.529 82.671 C 262.456 78.144,262.163 78.499,265.962 78.504 C 267.587 78.506,269.206 78.575,269.560 78.657 M296.789 79.272 C 297.881 80.040,298.712 81.263,298.314 81.515 C 298.187 81.596,295.852 81.663,293.125 81.664 L 288.167 81.667 288.167 81.208 C 288.170 79.576,290.431 78.493,293.705 78.555 L 295.827 78.595 296.789 79.272 M245.453 82.448 C 245.406 82.695,245.430 83.051,245.507 83.240 C 245.611 83.497,245.648 83.385,245.656 82.792 C 245.668 81.910,245.583 81.767,245.453 82.448 " stroke="none" fill="#7c7373" fill-rule="evenodd"></path></g></svg>