<?xml version="1.0" standalone="no"?>
<!DOCTYPE svg PUBLIC "-//W3C//DTD SVG 20010904//EN"
 "http://www.w3.org/TR/2001/REC-SVG-20010904/DTD/svg10.dtd">
<svg version="1.0" xmlns="http://www.w3.org/2000/svg"
 width="980.000000pt" height="280.000000pt" viewBox="0 0 980.000000 280.000000"
 preserveAspectRatio="xMidYMid meet">

<g transform="translate(0.000000,280.000000) scale(0.100000,-0.100000)"
fill="#000000" stroke="none">
<path d="M4537 2034 c-11 -11 -8 -684 3 -723 12 -42 62 -96 112 -122 33 -17
60 -19 221 -19 160 0 191 3 246 21 72 25 159 101 185 162 19 46 29 46 44 2 19
-50 94 -122 160 -153 53 -25 68 -27 215 -30 208 -4 269 12 352 92 30 30 59 66
65 80 12 33 28 33 40 2 8 -22 72 -91 114 -124 9 -8 43 -23 76 -33 51 -18 80
-20 222 -17 153 3 166 5 222 30 84 40 151 113 176 195 11 36 20 74 20 85 0 17
5 16 46 -14 l46 -33 217 -3 c179 -3 219 -6 234 -19 23 -22 21 -45 -6 -71 -23
-21 -30 -22 -275 -22 l-252 0 1 -57 c3 -102 -26 -93 280 -93 245 0 274 2 312
19 110 50 157 189 97 286 -57 93 -75 98 -326 105 -230 5 -244 9 -244 61 0 22
6 32 26 39 14 6 160 10 340 10 l314 0 0 -172 c0 -190 10 -233 68 -287 53 -51
93 -61 233 -61 l129 0 0 75 0 75 -104 0 c-94 0 -107 2 -131 23 -25 22 -25 23
-27 182 l-1 160 131 3 132 3 0 74 0 75 -124 0 c-69 0 -127 4 -131 10 -3 5 -6
45 -7 89 0 44 -4 85 -8 91 -4 7 -34 10 -81 8 l-74 -3 -3 -97 -3 -98 -351 0
-351 0 -42 -24 c-42 -25 -95 -92 -95 -121 0 -8 -2 -15 -5 -15 -3 0 -31 26 -63
58 -41 40 -76 64 -118 80 -56 22 -72 23 -234 20 -170 -3 -177 -4 -233 -32 -57
-29 -131 -100 -148 -143 -12 -32 -25 -28 -45 12 -24 51 -106 121 -170 144 -47
18 -78 21 -219 21 -147 0 -171 -2 -221 -22 -66 -27 -157 -108 -179 -162 -9
-20 -17 -36 -20 -36 -3 0 -14 20 -26 45 -24 51 -88 113 -151 147 -40 21 -58
23 -248 28 l-205 5 -5 95 -5 95 -70 3 c-39 1 -74 0 -78 -4z m556 -374 c76 -52
101 -172 53 -249 -14 -21 -42 -49 -63 -62 -35 -22 -51 -24 -184 -27 -143 -4
-146 -3 -175 21 l-29 25 -3 147 c-2 81 -1 153 2 162 5 12 33 14 184 11 171 -3
180 -4 215 -28z m843 -6 c113 -91 100 -243 -26 -307 -53 -27 -60 -28 -175 -25
-99 3 -127 7 -160 25 -111 60 -127 222 -30 300 50 40 64 42 217 40 136 -2 137
-3 174 -33z m831 0 c48 -39 72 -86 73 -146 0 -76 -28 -125 -95 -161 -35 -19
-56 -22 -170 -22 -120 0 -133 2 -174 25 -129 72 -122 259 13 321 35 17 60 19
178 17 136 -3 136 -3 175 -34z"/>
<path d="M6396 1001 c-3 -5 -6 -82 -7 -172 l-1 -163 27 -23 c25 -22 86 -31
175 -24 140 10 194 191 81 276 -21 16 -47 21 -131 25 l-105 5 -5 39 c-5 38
-22 57 -34 37z m255 -159 c16 -18 31 -43 35 -56 8 -33 -23 -95 -53 -107 -36
-13 -177 -11 -191 3 -13 13 -17 179 -4 192 4 5 47 6 96 4 85 -4 90 -6 117 -36z"/>
<path d="M6791 1001 c-19 -12 -6 -41 19 -41 16 0 21 5 18 22 -3 25 -17 32 -37
19z"/>
<path d="M6913 1003 c-10 -3 -13 -52 -13 -193 0 -166 2 -189 17 -194 9 -4 20
-3 25 2 12 12 5 385 -7 388 -5 1 -16 0 -22 -3z"/>
<path d="M5525 924 c-11 -3 -31 -10 -44 -17 -19 -9 -25 -9 -28 1 -3 6 -13 12
-24 12 -18 0 -19 -9 -19 -149 0 -151 4 -166 38 -153 8 3 12 34 12 106 0 95 2
104 24 125 13 12 39 24 59 28 32 5 41 1 72 -30 l35 -35 0 -95 c0 -97 5 -112
34 -101 13 5 16 24 16 105 0 87 2 101 23 124 13 15 37 28 59 32 33 5 41 2 73
-30 l35 -35 0 -95 c0 -97 5 -112 34 -101 13 5 16 23 16 101 0 103 -9 130 -59
177 -26 25 -38 29 -85 29 -45 0 -62 -5 -91 -27 l-35 -27 -31 25 c-17 14 -36
26 -42 26 -7 0 -21 2 -32 4 -11 2 -29 2 -40 0z"/>
<path d="M6040 896 c-47 -32 -65 -68 -64 -131 0 -102 55 -145 182 -145 114 0
162 28 184 108 19 67 -8 135 -67 172 -50 31 -187 29 -235 -4z m194 -30 c71
-30 90 -114 37 -167 -28 -27 -34 -29 -111 -29 -77 0 -83 2 -111 29 -52 52 -34
137 35 167 41 17 108 18 150 0z"/>
<path d="M6780 771 c0 -150 4 -165 38 -154 9 4 12 43 12 154 l0 149 -25 0 -25
0 0 -149z"/>
<path d="M7068 894 c-53 -38 -76 -100 -59 -162 22 -83 70 -112 183 -112 76 0
131 18 147 48 24 45 -2 57 -46 22 -38 -29 -169 -29 -207 1 -14 11 -26 29 -26
40 0 18 9 19 155 19 l155 0 0 28 c-1 39 -30 87 -70 117 -30 22 -44 25 -115 25
-71 0 -85 -3 -117 -26z m176 -24 c28 -10 66 -45 66 -60 0 -6 -48 -10 -125 -10
-102 0 -125 3 -125 14 0 14 40 47 70 59 25 9 87 8 114 -3z"/>
<path d="M7417 900 c3 -11 7 -20 8 -20 1 0 5 9 8 20 3 12 0 20 -8 20 -8 0 -11
-8 -8 -20z"/>
<path d="M7460 903 c0 -12 4 -24 9 -27 17 -11 41 6 41 27 0 20 -1 20 -14 2
-13 -18 -13 -18 -24 1 -11 18 -11 18 -12 -3z"/>
</g>
</svg>
