<?xml version="1.0" standalone="no"?>
<!DOCTYPE svg PUBLIC "-//W3C//DTD SVG 20010904//EN"
 "http://www.w3.org/TR/2001/REC-SVG-20010904/DTD/svg10.dtd">
<svg version="1.0" xmlns="http://www.w3.org/2000/svg"
 width="820.000000pt" height="862.000000pt" viewBox="0 0 820.000000 862.000000"
 preserveAspectRatio="xMidYMid meet">

<g transform="translate(0.000000,862.000000) scale(0.100000,-0.100000)"
fill="#000000" stroke="none">
<path d="M102 2487 l3 -754 42 -84 c47 -94 98 -150 186 -203 99 -59 154 -66
514 -66 379 0 450 10 598 84 170 85 282 204 351 374 18 45 24 53 29 37 37
-113 131 -247 223 -320 75 -61 220 -132 307 -151 108 -25 532 -31 665 -10 253
40 453 181 553 388 18 37 34 67 37 67 3 1 17 -26 32 -58 60 -129 174 -245 308
-315 148 -77 256 -96 550 -96 310 0 444 26 590 115 199 121 340 356 340 568
l0 59 55 -50 c68 -62 160 -109 240 -122 33 -5 235 -10 448 -10 426 0 421 1
453 -61 18 -36 18 -53 -2 -95 -31 -66 -16 -64 -614 -64 l-540 0 2 -167 3 -168
548 -3 c458 -2 559 0 613 13 213 49 354 224 354 440 0 186 -110 346 -288 417
-56 22 -68 23 -495 28 l-439 5 -29 33 c-43 47 -41 102 5 148 l34 34 701 0 701
0 0 -339 c0 -186 4 -363 10 -392 17 -91 72 -189 144 -256 124 -117 187 -133
518 -133 l248 0 0 170 0 170 -225 0 c-252 0 -280 6 -315 62 -19 31 -20 50 -20
376 l0 342 280 0 280 0 0 170 0 170 -280 0 -280 0 0 200 0 200 -180 0 -180 0
0 -200 0 -200 -707 0 c-771 0 -782 -1 -886 -57 -103 -56 -191 -171 -220 -288
l-12 -45 -55 77 c-69 96 -167 180 -273 231 -146 72 -183 77 -517 77 -251 0
-307 -3 -373 -18 -94 -22 -231 -90 -309 -152 -66 -53 -146 -155 -185 -237 -16
-32 -30 -58 -33 -57 -3 0 -19 30 -37 67 -86 179 -258 316 -469 374 -70 19
-111 22 -349 26 -324 4 -408 -8 -560 -81 -176 -85 -309 -233 -369 -411 -5 -15
-19 5 -58 84 -43 90 -63 116 -137 190 -119 118 -239 180 -405 209 -34 7 -212
11 -418 11 l-358 0 0 200 0 200 -175 0 -176 0 3 -753z m1169 -20 c71 -34 152
-119 187 -194 23 -51 26 -71 26 -163 1 -99 -1 -109 -32 -172 -40 -82 -119
-157 -200 -190 -56 -22 -65 -23 -379 -23 -365 0 -356 -2 -400 85 -22 43 -23
52 -23 368 l0 323 383 -3 382 -3 56 -28z m1804 -1 c327 -161 282 -639 -70
-730 -85 -23 -485 -23 -570 0 -154 39 -258 155 -287 314 -32 183 78 369 255
432 46 16 83 18 332 15 l280 -2 60 -29z m1750 13 c186 -69 292 -274 241 -464
-38 -146 -137 -243 -284 -280 -52 -14 -107 -16 -310 -13 -233 4 -250 5 -306
28 -35 14 -82 45 -116 76 -184 171 -161 472 47 610 90 60 109 63 405 63 247 1
271 -1 323 -20z"/>
<path d="M4100 691 c0 -224 4 -360 11 -378 14 -38 46 -71 93 -95 35 -18 55
-19 220 -16 168 3 184 5 231 28 192 94 246 348 108 509 -83 98 -158 121 -395
121 l-168 0 0 90 0 90 -50 0 -50 0 0 -349z m519 40 c163 -83 171 -306 14 -398
-47 -27 -52 -28 -215 -31 l-167 -4 -26 26 -25 25 0 201 0 200 190 0 c169 0
195 -2 229 -19z"/>
<path d="M4960 990 l0 -50 50 0 50 0 0 50 0 50 -50 0 -50 0 0 -50z"/>
<path d="M5200 621 l0 -421 55 0 55 0 -2 418 -3 417 -52 3 -53 3 0 -420z"/>
<path d="M1997 853 c-4 -3 -7 -152 -7 -330 l0 -323 55 0 55 0 0 209 0 209 33
48 c63 94 166 119 268 66 43 -22 59 -38 81 -81 28 -53 28 -54 28 -252 l0 -199
49 0 50 0 3 203 c3 194 4 204 28 247 67 118 216 145 317 57 66 -58 73 -87 73
-309 l0 -198 51 0 50 0 -3 223 -3 222 -30 54 c-32 57 -85 109 -144 138 -27 14
-59 18 -131 18 -109 0 -152 -17 -221 -86 l-39 -39 -33 36 c-94 108 -287 126
-402 38 l-35 -26 0 41 0 41 -43 0 c-24 0 -47 -3 -50 -7z"/>
<path d="M3462 850 c-59 -12 -137 -57 -174 -99 -146 -166 -96 -422 100 -518
55 -27 62 -28 222 -28 160 0 167 1 222 28 68 33 121 90 155 165 36 77 36 187
1 263 -32 69 -98 135 -168 167 -48 23 -70 26 -185 28 -71 2 -149 -1 -173 -6z
m321 -113 c149 -63 184 -261 66 -374 -52 -49 -104 -63 -238 -63 -101 0 -123 3
-167 24 -119 55 -166 187 -109 303 25 50 71 94 117 113 37 14 293 12 331 -3z"/>
<path d="M4960 531 l0 -331 50 0 50 0 -2 328 -3 327 -47 3 -48 3 0 -330z"/>
<path d="M5674 847 c-67 -18 -113 -47 -168 -108 -60 -67 -80 -128 -74 -233 7
-128 69 -219 187 -275 53 -25 64 -26 211 -26 150 0 157 1 212 28 58 28 131
100 141 137 5 18 0 20 -52 20 -45 0 -59 -4 -69 -20 -27 -43 -90 -63 -212 -68
-131 -5 -179 5 -238 48 -37 27 -82 92 -82 120 0 7 112 10 341 10 l342 0 -7 68
c-12 125 -84 230 -194 280 -47 21 -73 25 -171 28 -73 2 -135 -1 -167 -9z m304
-116 c48 -25 87 -66 107 -113 l15 -38 -285 0 c-210 0 -285 3 -285 12 0 25 51
96 87 120 54 36 54 36 196 37 107 1 134 -2 165 -18z"/>
<path d="M6280 840 c0 -5 9 -10 20 -10 17 0 20 -7 20 -45 0 -25 5 -45 10 -45
6 0 10 20 10 45 0 38 3 45 20 45 11 0 20 5 20 10 0 6 -22 10 -50 10 -27 0 -50
-4 -50 -10z"/>
<path d="M6390 795 c0 -30 5 -55 10 -55 6 0 10 17 10 38 l1 37 20 -37 c24 -46
35 -47 53 -5 l14 32 1 -32 c2 -57 21 -36 21 22 0 65 -22 76 -40 20 -6 -19 -15
-35 -19 -35 -4 0 -15 16 -24 35 -26 55 -47 46 -47 -20z"/>
</g>
</svg>
