<?xml version="1.0" standalone="no"?>
<!DOCTYPE svg PUBLIC "-//W3C//DTD SVG 20010904//EN"
 "http://www.w3.org/TR/2001/REC-SVG-20010904/DTD/svg10.dtd">
<svg version="1.0" xmlns="http://www.w3.org/2000/svg"
 width="935.000000pt" height="267.000000pt" viewBox="0 0 935.000000 267.000000"
 preserveAspectRatio="xMidYMid meet">

<g transform="translate(0.000000,267.000000) scale(0.100000,-0.100000)"
fill="#000000" stroke="none">
<path d="M4324 1927 c-3 -8 -4 -163 -2 -344 l3 -330 27 -39 c15 -21 44 -50 65
-64 35 -24 43 -25 223 -28 167 -3 192 -1 239 17 74 28 135 78 168 138 15 29
31 53 35 53 3 0 16 -20 28 -44 26 -54 86 -111 149 -140 41 -19 63 -21 221 -21
170 0 176 1 230 27 69 34 141 104 156 150 4 15 9 17 20 7 8 -6 14 -16 14 -22
0 -20 72 -97 113 -121 72 -40 122 -48 288 -44 143 3 158 5 204 30 92 48 147
118 166 207 6 31 13 62 15 69 3 9 17 3 45 -20 l41 -33 210 -5 c206 -5 210 -5
229 -29 24 -29 24 -36 -1 -61 -19 -19 -33 -20 -260 -20 l-240 0 0 -70 0 -70
258 0 c229 0 261 2 298 19 63 29 114 109 114 181 0 41 -46 123 -83 148 -55 36
-92 42 -282 42 -194 0 -205 3 -205 50 0 50 3 50 336 50 l312 0 4 -167 c3 -178
9 -204 62 -261 45 -51 85 -62 221 -62 l125 0 0 70 0 70 -108 0 c-145 0 -140
-8 -143 190 l-3 155 125 5 124 5 0 70 0 70 -122 3 c-88 2 -123 6 -124 15 0 7
0 41 0 77 1 36 -2 71 -7 78 -6 9 -29 12 -78 10 l-69 -3 -3 -87 -3 -87 -332 -3
c-292 -3 -336 -5 -364 -20 -37 -21 -91 -83 -99 -115 -6 -23 -34 -33 -34 -12 0
23 -94 99 -148 120 -50 20 -76 23 -212 23 -146 0 -158 -1 -211 -26 -67 -30
-128 -83 -154 -132 -11 -20 -23 -36 -26 -36 -4 0 -21 22 -39 49 -37 59 -84 97
-154 124 -43 17 -74 21 -206 21 -146 0 -158 -1 -211 -26 -71 -32 -129 -85
-160 -143 -13 -25 -26 -45 -30 -45 -3 0 -13 18 -23 39 -24 57 -114 135 -178
157 -39 13 -99 19 -228 23 l-175 6 -5 85 -5 85 -68 3 c-51 2 -69 -1 -73 -11z
m544 -346 c87 -66 95 -199 16 -273 -45 -42 -75 -48 -224 -48 -192 0 -184 -8
-188 195 l-3 156 183 -3 c176 -3 184 -4 216 -27z m800 -1 c45 -33 72 -88 72
-145 0 -53 -16 -88 -57 -127 -43 -41 -74 -48 -202 -48 -101 0 -123 3 -161 23
-105 52 -129 177 -53 268 45 52 72 59 228 56 132 -2 142 -3 173 -27z m789 4
c44 -33 73 -91 73 -149 0 -59 -22 -100 -76 -141 -36 -28 -42 -29 -166 -32
-116 -3 -133 -1 -174 18 -98 48 -130 164 -69 252 50 71 77 79 242 76 125 -3
145 -5 170 -24z"/>
<path d="M6106 953 c-3 -3 -6 -75 -6 -159 0 -199 0 -199 132 -199 74 0 100 4
121 18 65 43 86 130 45 195 -31 50 -85 72 -185 72 l-83 0 0 34 c0 34 -11 52
-24 39z m240 -147 c27 -27 34 -42 34 -72 -1 -72 -45 -104 -146 -104 -95 0
-104 10 -104 115 0 45 3 85 7 88 3 4 44 7 91 7 82 0 85 -1 118 -34z"/>
<path d="M6479 949 c-11 -6 -11 -11 -2 -20 12 -12 43 -6 43 10 0 14 -25 20
-41 10z"/>
<path d="M6597 954 c-4 -4 -7 -88 -7 -186 0 -166 1 -179 18 -176 15 3 17 20
17 182 0 169 -5 202 -28 180z"/>
<path d="M5164 867 c-2 -7 -3 -71 -2 -143 3 -116 5 -129 21 -129 16 0 18 11
20 98 2 97 3 99 32 123 39 31 86 31 122 0 26 -23 28 -30 33 -122 4 -81 8 -99
21 -102 14 -3 17 11 21 99 4 96 5 103 31 125 40 34 88 32 129 -5 32 -29 33
-31 35 -123 1 -69 5 -93 15 -93 10 0 14 25 16 93 2 80 0 98 -18 127 -40 65
-121 82 -184 40 -20 -14 -39 -25 -42 -25 -3 0 -22 11 -42 25 -43 30 -101 33
-138 8 -25 -16 -27 -16 -36 0 -11 20 -27 22 -34 4z"/>
<path d="M5802 873 c-35 -7 -90 -68 -98 -109 -15 -83 38 -157 122 -170 138
-20 224 34 224 144 0 43 -5 57 -31 86 -43 49 -123 67 -217 49z m164 -55 c40
-31 44 -38 44 -81 0 -49 -13 -73 -50 -92 -34 -18 -132 -20 -163 -4 -58 30 -75
103 -36 153 28 36 52 45 120 45 43 1 63 -4 85 -21z"/>
<path d="M6480 745 c0 -74 0 -138 0 -142 0 -5 8 -8 18 -8 15 0 17 13 20 120 3
133 -1 165 -23 165 -13 0 -15 -22 -15 -135z"/>
<path d="M6764 860 c-56 -28 -78 -71 -72 -141 3 -39 11 -61 29 -81 68 -73 289
-53 289 28 0 11 -35 2 -57 -16 -20 -15 -41 -20 -92 -20 -59 0 -71 3 -101 28
-23 20 -31 34 -27 45 6 15 25 17 152 17 164 0 161 -1 126 76 -35 77 -157 108
-247 64z m166 -35 c26 -13 50 -42 50 -59 0 -3 -56 -6 -125 -6 -69 0 -125 3
-125 8 0 16 33 54 54 62 34 14 115 11 146 -5z"/>
<path d="M7120 858 c0 -12 7 -18 23 -17 15 0 17 2 7 6 -8 3 -18 11 -22 17 -5
7 -8 4 -8 -6z"/>
</g>
</svg>
